<?xml version="1.0" encoding="utf-8"?>
<!-- Generator: Adobe Illustrator 23.0.1, SVG Export Plug-In . SVG Version: 6.00 Build 0)  -->
<svg version="1.1" id="圖層_1" xmlns="http://www.w3.org/2000/svg" xmlns:xlink="http://www.w3.org/1999/xlink" x="0px" y="0px"
	 viewBox="0 0 13 13" style="enable-background:new 0 0 13 13;" xml:space="preserve">
<style type="text/css">
	.st0{fill:#004EA2;}
</style>
<path id="language" class="st0" d="M2.5,7.4c0.1,0.1,0.2,0,0.3,0.1c0,0,0.1,0,0.1,0C2.9,7.4,2.8,7.4,2.7,7.3
	C2.6,7.3,2.6,7.3,2.5,7.4z M5.4,5.7c0.1,0,0.1,0,0.1-0.1c0-0.1,0-0.1,0-0.2c-0.1-0.1-0.1,0-0.2,0C5.4,5.5,5.4,5.6,5.4,5.7
	C5.4,5.6,5.4,5.7,5.4,5.7z M3,7.6c0,0,0.1,0,0.1,0c0,0,0,0,0-0.1c0,0,0,0,0,0C3.1,7.5,3,7.5,3,7.6z M5.5,5.4
	C5.5,5.4,5.6,5.5,5.5,5.4c0.1,0.1,0.1,0.1,0.1,0.1c0,0,0,0,0,0.1c0,0,0,0,0,0c0,0,0,0.1,0,0.1c0,0,0,0,0,0c0,0-0.1,0-0.1,0.1
	c0,0,0,0,0.1,0c0.1,0,0.1-0.1,0.2-0.1c0.1-0.1,0-0.2,0-0.2c0,0,0,0,0,0c0-0.1-0.1-0.1-0.1-0.2c0,0,0-0.1,0-0.1c0,0,0,0-0.1,0
	c0,0,0,0,0,0c-0.1,0-0.1,0-0.1,0.1C5.5,5.3,5.5,5.3,5.5,5.4C5.5,5.4,5.5,5.4,5.5,5.4L5.5,5.4z M7.7,4C7.7,4.1,7.7,4.1,7.7,4
	c0.1,0.1,0.2,0.1,0.2,0c0,0,0,0,0,0c-0.1-0.1,0-0.2,0.1-0.3C7.9,3.7,8,3.7,8,3.6c0,0,0,0,0,0c0.1-0.1,0.2-0.1,0.2-0.1
	c0,0,0-0.1,0-0.1c-0.1,0-0.1,0-0.1,0.1c0,0-0.1,0-0.1,0c0,0-0.1,0.1-0.1,0.1c0,0-0.1,0-0.1,0s0,0.1-0.1,0.1c0,0,0,0,0,0.1s0,0,0,0
	c0,0-0.1,0.1-0.1,0.1c0,0,0,0,0,0C7.6,3.9,7.6,4,7.7,4C7.6,4,7.7,4,7.7,4z M7.9,9.2c0,0,0,0.1-0.1,0.1c0,0,0,0,0,0.1c0,0,0,0,0,0
	c0,0,0,0,0,0c-0.1,0-0.1,0.1-0.1,0.1c0,0.1,0,0.2,0,0.4c0,0,0.1,0.1,0.1,0.1c0,0,0.1-0.1,0.1-0.2C7.9,9.7,8,9.6,8,9.5
	c0-0.1,0-0.1,0-0.2C8,9.3,8,9.2,7.9,9.2L7.9,9.2z M10.2,7.5C10.2,7.6,10.3,7.5,10.2,7.5C10.2,7.5,10.2,7.5,10.2,7.5L10.2,7.5z
	 M10.7,7.2c-0.1,0-0.1,0.1-0.1,0.1c0,0,0,0,0.1,0C10.7,7.3,10.7,7.2,10.7,7.2L10.7,7.2z M6.5,1.5c-2.8,0-5,2.2-5,5s2.2,5,5,5
	s5-2.2,5-5S9.3,1.5,6.5,1.5z M2.8,4.4L2.8,4.4C2.8,4.4,2.8,4.4,2.8,4.4C2.8,4.4,2.8,4.4,2.8,4.4z M2.8,4.4C2.8,4.5,2.8,4.5,2.8,4.4
	C2.8,4.5,2.8,4.5,2.8,4.4L2.8,4.4C2.7,4.5,2.7,4.5,2.8,4.4L2.8,4.4z M2.9,8.4c0,0.1,0,0.1-0.1,0.2c0,0,0,0,0,0v0
	C2.7,8.4,2.6,8.2,2.5,8l0,0c0,0,0,0,0.1,0.1c0.1,0.1,0.1,0.2,0.2,0.1C2.8,8.2,2.9,8.3,2.9,8.4z M6.5,10.8c-0.8,0-1.7-0.2-2.4-0.7
	c0,0,0,0,0-0.1c0,0,0.1-0.1,0.1-0.1c0.1,0,0.2-0.1,0.2-0.1c0-0.1,0-0.2,0.1-0.3c0-0.1,0-0.1,0-0.2c0,0,0,0,0.1,0c0,0,0-0.1,0-0.1
	C4.6,9.1,4.6,9,4.7,9c0,0,0-0.1,0-0.1c-0.1,0-0.1-0.1-0.2-0.1c-0.1,0-0.1-0.1-0.2-0.1C4.2,8.7,4.1,8.6,4.1,8.6c0,0-0.1,0-0.1,0
	c0,0,0-0.1,0.1-0.1C4,8.4,4,8.4,3.9,8.4c-0.1,0-0.2-0.1-0.3-0.2c0,0,0,0-0.1-0.1c0,0,0,0,0,0C3.5,8.1,3.5,8,3.4,8
	c-0.1,0-0.1,0-0.1,0c0,0,0,0-0.1,0c0,0,0-0.1-0.1-0.1S3.1,8,3.1,8c0,0,0-0.1,0-0.1C3,7.9,3,8,3,8c0,0-0.1,0-0.1,0c0,0,0,0,0,0
	C2.7,8,2.6,8,2.6,8c0,0,0-0.1,0-0.2c0,0,0,0-0.1-0.1c0,0-0.1,0-0.1,0c0-0.1,0-0.1,0-0.2c0,0-0.1,0-0.1,0c0-0.1-0.1-0.3-0.1-0.4
	c0,0,0,0,0.1,0c0,0,0,0,0-0.1c0.1,0,0.1,0,0.2,0c0,0,0,0,0,0c0,0.1,0.1,0.2,0.1,0.2c0-0.1,0-0.2,0-0.3c0,0,0-0.1,0-0.1
	c0.1-0.1,0.2-0.2,0.1-0.3c0,0,0,0,0.1,0c0,0,0,0,0-0.1c0-0.1,0.1-0.1,0.2-0.2c0,0,0,0,0-0.1c0.1,0,0.1-0.1,0.2-0.1c0,0,0-0.1,0-0.1
	c0-0.1,0.1-0.1,0.1-0.1c-0.1,0-0.2,0.1-0.3,0.1c0.1,0,0.1-0.1,0.1-0.1c0.1,0,0.2,0,0.2,0c0,0,0,0,0.1-0.1c0,0,0.1,0,0.1-0.1
	c0,0,0-0.1,0-0.1c0,0-0.1,0-0.1,0c0,0,0,0,0-0.1c0,0,0,0,0,0c0-0.1-0.1-0.1-0.1-0.1C3.3,5.1,3.3,5,3.2,5c0,0.1,0,0.1-0.1,0.1
	C3,5.1,3.1,4.9,3,4.9c0,0-0.1,0-0.1-0.1c0,0,0,0,0,0c-0.1,0-0.1,0-0.2,0c0,0,0,0.1,0,0.1c0,0.2,0,0.2,0,0.4c0,0.1-0.1,0.1-0.1,0.3
	c0,0,0,0.1-0.1,0.1c-0.1,0-0.1-0.2-0.1-0.3c0,0-0.1,0-0.1-0.1C2.5,5.1,2.6,5,2.6,4.8c0,0,0,0.1,0,0.1c0,0,0-0.1,0-0.1
	c0-0.1,0.1-0.1,0.1-0.2c0,0,0.1,0,0.1,0c0,0,0.1,0.1,0.1,0.1c0.1,0,0.1,0.2,0.3,0.1c0-0.1-0.1-0.1-0.1-0.1c0.1,0,0.1,0,0.1,0
	c0,0,0-0.1,0-0.1c0,0,0,0-0.1,0l0-0.1c0.1,0,0.1,0.1,0.2,0.1c0,0,0-0.1,0.1-0.1c0,0-0.1,0-0.1-0.1c-0.1,0-0.1,0-0.2-0.1c0,0,0,0,0,0
	c0,0,0-0.1-0.1-0.1c0.1-0.2,0.2-0.3,0.4-0.5c0,0.1,0.1,0.1,0.1,0.2c0,0.1,0,0.1,0,0.2c0.1-0.1,0.2,0.1,0.2,0.2c0,0-0.1,0.1,0,0.1
	c0,0-0.1,0.1-0.1,0.1c0,0.1,0.1,0.1,0.1,0.2c0,0.1,0,0.1,0.1,0.3C3.9,4.9,4,4.9,4,5l0.1,0c0,0,0,0,0,0c0-0.1,0-0.1,0-0.2
	c0.1-0.1,0.1-0.2,0.1-0.2c0,0,0,0,0,0c0,0,0-0.1,0.1-0.1c0,0,0.1,0,0.1-0.1c0,0,0-0.1,0-0.1c0.1,0,0.3-0.1,0.4-0.2c0,0,0-0.1,0-0.1
	c0,0-0.1,0-0.1,0c0-0.1,0.1,0,0.1,0c0-0.1-0.1-0.1-0.1-0.2c0,0-0.1,0-0.1,0c0,0,0.1,0,0.1,0c0,0,0-0.1,0-0.1c0,0,0-0.1,0-0.1
	c0,0,0,0,0,0c0,0,0-0.1,0-0.1c0,0,0.1,0,0.1,0c0-0.1,0-0.1-0.1-0.1c0-0.1,0.1-0.2,0.1-0.3c0.1,0,0.2-0.1,0.2-0.2c0,0,0,0-0.1,0
	c-0.1-0.1-0.3,0-0.3,0c0,0,0,0,0-0.1c0,0-0.1,0-0.1,0c0,0,0.1,0,0.1,0c0-0.1-0.1-0.1-0.2-0.1c0,0-0.1,0-0.1,0h0
	c0.6-0.3,1.2-0.5,1.8-0.4c1.1,0,2.2,0.4,3,1.2c-0.1,0.1-0.2,0.1-0.2,0c0,0-0.1,0-0.1,0.1C9.1,3.6,9,3.6,9,3.7c0,0,0,0,0,0.1
	c-0.1,0-0.2,0-0.2,0.1c0,0,0,0,0,0.1c0.1,0,0.1,0.1,0.1,0.2C8.8,4,8.8,4,8.8,4c-0.1,0-0.2-0.1-0.2,0c0,0.1,0.1,0,0.1,0.1
	c0,0-0.1,0-0.1,0c0,0,0-0.1,0-0.1c0,0-0.1,0-0.1,0c0,0,0,0.1,0,0.1c0,0,0,0.1,0.1,0.2c0,0,0.1,0,0.1,0c-0.1,0-0.1,0-0.1,0
	c0,0,0,0.1,0,0.1c0,0-0.1,0.1-0.1,0.1c0-0.1,0.1-0.1,0.1-0.2c0-0.1,0-0.1-0.1-0.2s0-0.1,0-0.2c0,0,0-0.1-0.1-0.1
	c0,0-0.1,0.1-0.1,0.1c0,0,0,0,0,0.1c0,0.1,0,0.2,0.1,0.3c0,0-0.1,0-0.1-0.1c0,0-0.1,0-0.1,0C8,4.2,8,4.1,8,4.1c0,0.1,0.1,0.1,0,0.1
	c0,0,0,0-0.1,0c-0.1,0.1-0.1,0-0.1,0c0,0,0,0-0.1,0c0,0-0.1,0-0.1,0.1l-0.1,0c0,0-0.1,0.1-0.1,0.1c0-0.1,0-0.1,0-0.1
	c0,0-0.1-0.1-0.1,0c0,0.1,0,0.1,0,0.2c-0.1,0-0.1,0.1-0.1,0.2c0,0,0,0-0.1,0c0,0,0,0.1,0,0.1c0,0,0,0,0-0.1C7.1,4.6,7,4.6,7,4.5
	c0.1,0.1,0.2,0,0.2,0c0,0,0,0,0-0.1c0,0-0.1,0-0.1-0.1c0-0.1-0.1-0.2-0.2-0.1c0,0,0,0-0.1,0c0,0,0,0,0,0c-0.1,0-0.1,0-0.1,0
	c-0.1,0-0.2,0-0.2,0.1c0,0,0,0,0,0C6.4,4.3,6.3,4.3,6.2,4.4c-0.1,0-0.1,0.1-0.1,0.2C6.1,4.8,6,4.9,6,4.9C6,5,6,5.1,6,5.2
	c0,0,0,0,0.1,0c0,0,0,0,0,0c0,0,0.1,0,0.1-0.1c0,0,0.1,0,0.1,0c0,0,0,0.1,0.1,0.1c0-0.1,0.1-0.1,0.1-0.2c0,0,0-0.1-0.1-0.1
	c0-0.2,0.1-0.2,0.1-0.3c0,0,0.1-0.1,0.1,0c0,0,0,0,0,0C6.5,4.7,6.5,4.9,6.5,5c0,0,0.1,0.1,0.1,0.1c0,0,0.1,0,0.1,0c0,0,0,0,0,0
	s0,0,0,0c0,0,0,0,0,0c-0.1,0-0.2,0-0.1,0.1c0,0,0,0,0,0.1c0,0.1,0,0.1-0.1,0.1c0,0,0,0.1,0,0.1c-0.1,0.1-0.1,0-0.2,0.1
	c0-0.1-0.1-0.2-0.1-0.2c0,0-0.1,0-0.1,0.1c0,0.1,0.1,0.3,0,0.3c0,0.1-0.1,0.1-0.1,0.2c-0.1,0-0.1,0.1-0.2,0.1c0,0,0,0,0,0
	c0,0.1-0.1,0-0.1,0.1c0.1,0,0.1,0.1,0.1,0.2c0,0,0,0.1,0,0.1c-0.1,0-0.2,0-0.3,0.1c0,0,0,0.1,0,0.2c0,0.1,0,0.1,0,0.2
	c0,0,0.1,0.1,0.1,0.1c0,0,0,0,0,0c0.1,0,0.2-0.1,0.2-0.2c0,0,0,0,0,0C6,6.4,6,6.4,6,6.3c0.1,0,0.1,0,0.1,0c0.1,0,0.1-0.1,0.1-0.1
	c0.1,0,0.1,0.1,0.1,0.2l0,0c0,0,0,0.1,0.1,0.1c0,0,0-0.1,0-0.1l0,0c0,0,0,0,0,0c0,0-0.1-0.1-0.1-0.2c0.1,0,0.1,0.1,0.1,0.2
	c0,0,0,0,0,0c0.1,0.1,0.1,0.1,0.1,0.2c0.1,0,0.1-0.1,0.1-0.2l0,0c0,0,0.1-0.1,0.1,0v0c0,0,0,0.1,0,0.1c0,0,0.1,0.1,0.1,0.1
	c0.1,0,0.2,0,0.2,0c0,0,0,0,0.1,0c0,0.1,0,0.2,0,0.3c0,0-0.1,0-0.1,0c0,0,0,0-0.1,0C6.9,7,6.8,6.8,6.7,6.9V7c0,0-0.1,0-0.1-0.1
	c0,0-0.1,0-0.2-0.1c0-0.1,0-0.1,0-0.2c0,0-0.1,0-0.1,0c0,0-0.1,0-0.1,0C6,6.7,5.9,6.7,5.8,6.8c0,0-0.1-0.1-0.1,0
	c0,0.1-0.1,0.1-0.1,0.2l0,0.1c0,0,0,0-0.1,0.1c-0.1,0-0.1,0.1-0.1,0.2c0,0.1-0.1,0.1-0.1,0.2c0,0,0,0,0,0.1c0,0,0,0.1,0,0.1
	c0,0.1,0,0.1,0,0.2c0,0.1,0,0.1,0.1,0.1c0,0.1,0.1,0.1,0.2,0.3c0,0,0.1,0.1,0.1,0.1c0,0,0.1,0,0.1,0c0,0,0.1,0,0.1,0
	c0.1,0,0.2,0,0.2-0.1c0,0,0,0,0.1,0c0,0.1,0.1,0.1,0.2,0.1c0,0,0,0.1,0,0.1c0,0.1,0,0.1,0,0.2C6.5,8.8,6.6,8.8,6.6,9
	c0,0,0,0.1,0.1,0.1c0.1,0.2-0.1,0.3,0,0.5c0,0.1,0,0.1,0.1,0.1c0,0.1,0,0.1,0.1,0.2c0,0.1,0.1,0.2,0.1,0.4c0,0,0.1,0.1,0.1,0.2
	c0.1,0.2,0.3,0.1,0.4,0c0,0,0,0,0-0.1c0.1-0.1,0.1-0.2,0.2-0.3c0,0,0-0.1,0-0.1c0,0,0.1,0,0.1-0.1c0-0.1,0-0.1,0-0.2
	c0-0.1,0.1-0.1,0.1-0.2c0,0,0-0.1,0.1-0.1c0.1-0.1,0.1-0.1,0-0.3c0,0,0-0.1,0-0.1C7.6,9.1,7.6,9,7.6,9c0-0.1,0-0.2,0.1-0.2
	c0-0.1,0.1-0.1,0.1-0.2s0.1-0.1,0.1-0.2c0-0.1,0-0.2,0.1-0.3C8,8.1,8,8,8,8C7.9,7.9,7.9,8,7.8,8C7.7,8,7.7,8,7.7,8
	c-0.1,0-0.1-0.1-0.1-0.1c0,0,0-0.1,0-0.1C7.5,7.7,7.4,7.6,7.4,7.5C7.4,7.4,7.3,7.3,7.3,7.2c0,0,0,0,0,0c0.1-0.1,0.1,0.1,0.1,0.1
	c0,0.1,0.1,0.1,0.1,0.2c0,0,0.1,0.1,0.1,0.1c0,0.1,0.1,0.2,0.1,0.3c0.1,0.1,0.2,0,0.3,0C8,7.8,8.1,7.7,8.2,7.7
	c0-0.1,0.1-0.1,0.1-0.3c0,0-0.1-0.1-0.1-0.1c0,0,0-0.1-0.1-0.1c0,0.1,0,0.1-0.1,0.1S8,7.2,8,7.2c0,0,0,0-0.1,0c0,0,0-0.1,0-0.1
	c0,0-0.1-0.1-0.1-0.1C7.9,7,8,7.2,8,7.2c0,0,0.1,0,0.1,0c0,0,0,0,0,0c0.1,0,0.3,0.1,0.4,0.1c0,0.1,0.1,0.1,0.1,0.1
	c0,0.1,0,0.1,0.1,0.1c0,0,0,0,0-0.1c0,0,0,0,0,0c0,0,0,0,0,0c0,0,0,0.1,0,0.2c0,0,0,0.1,0,0.1C8.9,8,9,8,9,8.1c0,0,0,0,0,0
	c0,0,0.1-0.1,0.1-0.1c0-0.1,0-0.2,0-0.3c0.1-0.1,0.2-0.2,0.2-0.3c0,0,0.1,0,0.1-0.1c0,0.1,0.2,0.2,0.1,0.3c0,0,0.1,0.1,0.1,0
	c0,0,0,0,0,0c0,0.1,0.1,0.2,0.1,0.4C9.9,8.2,10,8.3,10,8.4c0,0-0.1,0-0.1-0.1c0-0.1-0.1-0.1-0.1,0c0,0.1,0,0.1,0.1,0.2
	c0,0,0,0.1,0,0.1c0,0,0,0,0.1,0.1c0,0.1,0.1,0.1,0.2,0.2c0,0,0,0,0.1,0.1C9.3,10,8,10.8,6.5,10.8z M7.6,6.1C7.7,6,7.8,5.9,7.9,6
	c0,0.1-0.1,0.1-0.1,0.1c0,0.1,0.1,0.1,0.1,0.2c0,0,0,0.1,0,0.1H7.7c0,0,0,0,0,0C7.7,6.3,7.6,6.2,7.6,6.1z M7.4,6.3c0,0-0.1,0-0.1,0
	c0,0-0.1-0.1-0.1-0.1c-0.1,0-0.2,0-0.2,0c0,0,0,0.1-0.1,0c0,0,0-0.1,0-0.1c0,0,0,0,0-0.1C6.9,6.1,6.9,6,7,6c0,0,0,0,0.1,0
	c0,0,0,0,0,0.1c0,0,0.1,0,0.1,0c0,0,0,0,0-0.1c0,0,0.1,0,0.1-0.1c0,0,0,0.1,0,0.1C7.3,6.1,7.3,6.2,7.4,6.3C7.4,6.3,7.4,6.3,7.4,6.3
	L7.4,6.3z M10.6,7.6c-0.1,0.3-0.2,0.5-0.3,0.8h-0.1c0,0,0,0.1,0,0.1c0,0.1-0.1,0.1-0.1,0.1v0c0,0,0,0-0.1,0c0-0.1-0.1-0.2-0.2-0.3
	c0,0,0.1,0.1,0.1,0c0-0.1-0.1-0.2-0.1-0.3c0,0,0,0,0,0C9.9,8.1,9.8,8,9.9,7.9C9.9,7.9,10,7.9,10,8c0,0,0,0.1,0,0.1
	c0,0,0-0.1,0.1-0.1c0-0.1,0.1-0.1,0.1-0.1c0-0.1,0-0.1-0.1-0.2c0,0-0.1,0-0.1-0.1c0-0.1,0-0.1,0-0.2c0,0,0.1,0,0.1-0.1c0,0,0,0,0,0
	c0,0,0.1,0,0.1-0.1c0,0,0,0,0,0c0.1,0,0.2-0.1,0.2-0.2c0-0.1,0.1-0.1,0.1-0.3c0,0,0,0,0-0.1c0-0.1-0.1-0.1-0.1-0.2
	c0,0,0.1-0.1,0.1-0.1c0-0.1-0.1-0.1-0.1-0.1v0c0,0,0-0.1,0.1-0.1c0,0,0,0,0,0.1c0,0,0.1,0,0.1,0c0,0,0,0,0,0c0,0,0,0.1,0.1,0.1
	c0,0.1,0,0.1,0,0.1c0,0.3,0,0.6-0.1,0.9c0,0,0,0,0,0C10.6,7.6,10.6,7.6,10.6,7.6z M4.9,4.5c-0.1-0.2-0.2,0.1,0,0.1
	c0,0.1,0.2,0.1,0.3,0c0,0,0-0.1,0.1-0.1c0,0,0-0.1,0-0.1C5.1,4.5,5,4.5,4.9,4.5z M9.1,8.1C9.1,8.1,9.1,8.1,9.1,8.1
	c0,0.1,0,0.2,0,0.2c0,0,0.1,0,0.1,0C9.2,8.2,9.2,8.1,9.1,8.1z M3.6,5.8C3.6,5.7,3.6,5.7,3.6,5.8c-0.1-0.2-0.2,0-0.2,0.1
	c0.1,0,0.1,0,0.1,0.1c0,0,0.1,0,0.1,0C3.7,5.9,3.7,5.7,3.6,5.8z M3.4,5.9C3.4,6,3.4,6,3.3,6c0,0,0,0,0,0c0,0.1,0.1,0,0.1,0
	C3.4,6,3.4,5.9,3.4,5.9C3.4,5.9,3.4,5.9,3.4,5.9L3.4,5.9z"/>
</svg>
