<svg xmlns="http://www.w3.org/2000/svg" viewBox="0 0 145.872 150.883">
  <defs>
    <style>
      .cls-1 {
        fill: #fff;
      }
    </style>
  </defs>
  <g id="Group_1375" data-name="Group 1375" transform="translate(0)">
    <g id="Group_1373" data-name="Group 1373">
      <g id="Group_1372" data-name="Group 1372" transform="translate(14.538)">
        <path id="Path_3503" data-name="Path 3503" class="cls-1" d="M66.693,5.471A.767.767,0,0,1,67.28,5.2a.526.526,0,0,1,.5.587.874.874,0,0,1-.271.587c-7.494,9.3-12.957,20.181-12.957,35.26s5.463,25.734,12.912,35.08a.874.874,0,0,1,.271.587.525.525,0,0,1-.5.587.971.971,0,0,1-.587-.271L34.819,46.781A6.563,6.563,0,0,1,32.2,41.544a6.629,6.629,0,0,1,2.619-5.237L66.693,5.471" transform="translate(-32.2 -2.852)"/>
        <path id="Path_3504" data-name="Path 3504" class="cls-1" d="M141.882,0C129.376,0,124.5,17.7,124.5,38.782s4.876,38.556,17.382,38.556c7.494,0,13.905-4.379,13.905-7.991a3.159,3.159,0,0,0-.948-2.212c-3.567-3.431-4.921-6.862-4.966-9.887a10.179,10.179,0,0,1,9.616-10.068c6.366,0,10.113,5.011,10.113,11.467,0,6.14-2.619,11.242-5.463,15.305a1.34,1.34,0,0,0-.181.5c0,.316.181.587.451.587a.847.847,0,0,0,.587-.316l31.919-30.836a6.563,6.563,0,0,0,2.619-5.237,6.629,6.629,0,0,0-2.619-5.237L165.043,2.619a.847.847,0,0,0-.587-.316c-.271,0-.451.271-.451.587a.868.868,0,0,0,.181.542c2.844,4.063,5.463,9.21,5.463,15.305,0,6.456-3.747,11.467-10.113,11.467a10.179,10.179,0,0,1-9.616-10.068c0-3.025,1.4-6.456,4.966-9.887a2.979,2.979,0,0,0,.948-2.212C155.742,4.379,149.376,0,141.882,0Z" transform="translate(-82.829)"/>
      </g>
      <path id="Path_3505" data-name="Path 3505" class="cls-1" d="M21.851,223.573a4.648,4.648,0,0,1,1.941-3.883h0a8.253,8.253,0,0,1,4.921-1.4h0a9.468,9.468,0,0,1,3.386.587h0v-1.851c-.045-1.851-.722-2.935-2.844-2.935h0a6.4,6.4,0,0,0-1.986.361h0a2.5,2.5,0,0,1,.09.813h0a2.253,2.253,0,0,1-.587,1.625h0a2.168,2.168,0,0,1-1.625.677h0a2.14,2.14,0,0,1-2.122-2.212h0c.045-2.257,2.8-3.792,6.456-3.792h0c2.935,0,4.74.677,5.734,1.941h0c.9,1.129.948,2.754.948,5.1h0v6.05c0,1.174.677,1.49,2.122,1.716h0l.181.045v.181a2.452,2.452,0,0,1-2.528,2.348h-.316a3.2,3.2,0,0,1-3.025-1.851h0a7.553,7.553,0,0,1-4.831,1.9h0c-3.341,0-5.914-2.3-5.914-5.418Zm104.11,4.65a4.623,4.623,0,0,1-.632-1.58h0a9.433,9.433,0,0,1-.677.677h0a6.058,6.058,0,0,1-4.2,1.67h0a5.469,5.469,0,0,1-4.244-1.806h0c-1.49-1.761-1.49-4.018-1.49-7.224h0v-3.07c-.045-1.219-.406-1.67-1.58-1.716h0a2.024,2.024,0,0,0-.5.045h-.135l-.045-.135a1.812,1.812,0,0,1-.135-.677h0c.045-1.49,1.941-2.3,3.025-2.528h0c.406-.045.768-.135,1.084-.135h0a2.341,2.341,0,0,1,1.986.813h0a3.331,3.331,0,0,1,.587,2.077h0l-.045,5.237a11.873,11.873,0,0,0,.542,4.334h0a2.194,2.194,0,0,0,2.3,1.354h0a2.862,2.862,0,0,0,2.619-1.4h0a6.27,6.27,0,0,0,.677-3.07h0v-4.244c-.045-1.219-.406-1.67-1.58-1.716h0a2.025,2.025,0,0,0-.5.045h-.135l-.045-.135a1.812,1.812,0,0,1-.135-.677h0c.045-1.49,1.9-2.3,3.025-2.528h0a9.621,9.621,0,0,1,1.129-.135h0a2.341,2.341,0,0,1,1.986.813h0a3.33,3.33,0,0,1,.587,2.077h0c0,.587-.045,1.67-.045,6.14h0c0,1.9-.045,2.889-.045,3.205h0c.045,1.309.451,1.851,1.67,1.9h0a1.25,1.25,0,0,0,.406-.045h.135l.045.135a1.772,1.772,0,0,1,.135.632h0c-.045,1.445-1.941,2.032-3.025,2.257h0a9.384,9.384,0,0,1-1.038.135h-.045a1.84,1.84,0,0,1-1.67-.722Zm-59.64-7.675a9.271,9.271,0,0,1,2.348-6.456h0a8.356,8.356,0,0,1,6.185-2.528h0A6.792,6.792,0,0,1,80,213.64h0a6.352,6.352,0,0,1,1.67,4.289h0a5,5,0,0,1-.542,2.348h0l-.045.09H70.746a5.1,5.1,0,0,0,5.418,5.147h0a5.685,5.685,0,0,0,4.154-1.806h0l.09-.135.135.09a1.5,1.5,0,0,1,.632,1.354h0c0,1.716-2.032,3.973-6.546,3.973h0a8.4,8.4,0,0,1-8.307-8.443Zm36.66,8.4a8.386,8.386,0,0,1-6-2.393h0a8.747,8.747,0,0,1-2.483-6.321h0a8.545,8.545,0,0,1,8.623-8.668h0a8.3,8.3,0,0,1,6.095,2.393h0a8.655,8.655,0,0,1,2.393,6.275h0a8.9,8.9,0,0,1-2.483,6.321h0a8.59,8.59,0,0,1-6.14,2.393Zm31.694-.542c-.722-.181-1.174-.587-1.174-1.174h0a2.676,2.676,0,0,1,.181-.768h0l.045-.09h.09a2.606,2.606,0,0,0,1.129-.5h0c.406-.361.587-.858.587-2.212h0V216.71c-.045-1.174-.316-1.58-1.264-1.625h0a5.029,5.029,0,0,0-.768.09h0l-.135.045-.045-.135a2.245,2.245,0,0,1-.135-.722h0c.045-1.4,1.535-2.122,2.573-2.438h0a3.457,3.457,0,0,1,1.129-.181h0c1.4,0,2.122.993,2.483,2.257h0a4.714,4.714,0,0,1,3.792-2.483h0a2.534,2.534,0,0,1,2.709,2.528h0a2.352,2.352,0,0,1-2.212,2.438h0a2.186,2.186,0,0,1-2.167-1.67h0c-.768.271-1.9,1.264-1.9,4.65h0v4.2c0,1.354.181,1.851.587,2.212h0a3.794,3.794,0,0,0,1.535.5h.09l.045.09a2.015,2.015,0,0,1,.226.813h0c0,.542-.406.948-1.084,1.129h0a12.5,12.5,0,0,1-3.025.271h0a10.552,10.552,0,0,1-3.3-.271Zm-50.069,0c-.722-.181-1.174-.587-1.174-1.174h0a1.72,1.72,0,0,1,.181-.768h0l.045-.09h.09a2.606,2.606,0,0,0,1.129-.5h0c.406-.361.587-.858.587-2.212h0v-9.12l-2.438-.09-.045-.09a2.094,2.094,0,0,1-.181-.858h0a1.458,1.458,0,0,1,1.535-1.49h1.084v-.993a8.062,8.062,0,0,1,1.084-4.741h0A5.6,5.6,0,0,1,91.65,203.8h0c3.16,0,5.824,1.49,5.869,3.838h0a2.225,2.225,0,0,1-2.212,2.3h0a2.188,2.188,0,0,1-2.167-2.122h0A2.158,2.158,0,0,1,93.5,206.6h0a2.63,2.63,0,0,0-1.58-.451h0a1.923,1.923,0,0,0-1.851.9h0a4.549,4.549,0,0,0-.451,2.348h0v2.619h4.2l.045.09a2.152,2.152,0,0,1,.181.9h0a1.635,1.635,0,0,1-1.49,1.67h0a6.669,6.669,0,0,1-.948.045h0c-.677,0-1.4-.045-1.9-.045h0v9.075c0,1.354.226,1.851.632,2.212h0a4.33,4.33,0,0,0,1.716.5h.09l.045.09a1.274,1.274,0,0,1,.181.677h0c0,.632-.5,1.038-1.264,1.219h0a12.632,12.632,0,0,1-3.3.316h0a13.024,13.024,0,0,1-3.205-.361Zm-29.391,0c-.722-.181-1.174-.587-1.174-1.174h0a1.72,1.72,0,0,1,.181-.768h0l.045-.09h.09a2.606,2.606,0,0,0,1.129-.5h0c.406-.361.587-.858.587-2.212h0V216.71c-.045-1.174-.316-1.58-1.264-1.625h0a5.029,5.029,0,0,0-.768.09h0l-.135.045-.045-.135a2.293,2.293,0,0,1-.135-.768h0c.045-1.4,1.535-2.077,2.573-2.393h0a3.457,3.457,0,0,1,1.129-.181h0A2.567,2.567,0,0,1,59.911,214h0a4.659,4.659,0,0,1,3.792-2.438h0a2.584,2.584,0,0,1,2.709,2.528h0a2.358,2.358,0,0,1-2.257,2.438h0a2.1,2.1,0,0,1-2.122-1.67h0c-.813.271-1.941,1.264-1.941,4.65h0v4.2c0,1.354.181,1.851.632,2.212h0a3.84,3.84,0,0,0,1.49.5h.09l.045.09a1.84,1.84,0,0,1,.226.813h0c0,.542-.406.948-1.084,1.129h0a12.5,12.5,0,0,1-3.025.271h0a11.607,11.607,0,0,1-3.251-.316Zm-13.905,0c-.722-.181-1.174-.587-1.174-1.174h0a2.676,2.676,0,0,1,.181-.768h0l.045-.09h.09a2.606,2.606,0,0,0,1.129-.5h0c.406-.361.587-.858.587-2.212h0V216.71c-.045-1.174-.316-1.58-1.264-1.625h0a5.029,5.029,0,0,0-.768.09h0l-.135.045-.045-.135a2.293,2.293,0,0,1-.135-.768h0c.045-1.4,1.535-2.077,2.573-2.393h0a3.457,3.457,0,0,1,1.129-.181h0A2.567,2.567,0,0,1,46.005,214h0a4.659,4.659,0,0,1,3.792-2.438h0a2.559,2.559,0,0,1,2.709,2.528h0a2.358,2.358,0,0,1-2.257,2.438h0a2.1,2.1,0,0,1-2.122-1.67h0c-.813.271-1.941,1.264-1.941,4.65h0v4.2c0,1.354.181,1.851.632,2.212h0a3.84,3.84,0,0,0,1.49.5h.09l.045.09a1.839,1.839,0,0,1,.226.813h0c0,.542-.406.948-1.084,1.129h0a12.5,12.5,0,0,1-3.025.271h0a12.033,12.033,0,0,1-3.251-.316Zm57.924-8.668c0,4.56,1.986,6.5,3.928,6.546h0c2.212,0,3.838-1.941,3.838-5.824h0a8.565,8.565,0,0,0-1.174-4.7h0a3.389,3.389,0,0,0-2.844-1.67h0c-2.3,0-3.747,2.077-3.747,5.643Zm-69.8.948c-1.851,0-3.07.858-3.07,2.573h0a2.584,2.584,0,0,0,2.8,2.709h0a3.907,3.907,0,0,0,2.935-1.49h0v-2.348a1.2,1.2,0,0,0-.677-.948h0a3.637,3.637,0,0,0-1.986-.5Zm47.45-2.754a.571.571,0,0,0,.5-.181h0a1.569,1.569,0,0,0,.09-.587h0a3.085,3.085,0,0,0-3.16-3.025h0c-2.393,0-3.341,1.9-3.522,3.838h6.095ZM3.3,225.966A12.562,12.562,0,0,1,0,217.117H0a12.63,12.63,0,0,1,3.251-8.759h0a10.384,10.384,0,0,1,7.54-3.386h0c5.1,0,8.713,3.567,8.713,6.682h0a2.656,2.656,0,0,1-2.438,2.935h0a2.755,2.755,0,0,1-1.851-.677h0a2.515,2.515,0,0,1-.768-1.9h0a3.02,3.02,0,0,1,.858-1.986h0a4.419,4.419,0,0,0-4.063-2.122h0a5.131,5.131,0,0,0-4.334,2.528h0a12.083,12.083,0,0,0-1.716,6.682h0A12.079,12.079,0,0,0,6.953,223.8h0a5.2,5.2,0,0,0,4.379,2.528h0a4.367,4.367,0,0,0,4.063-2.122h0a2.8,2.8,0,0,1-.858-1.941h0a2.723,2.723,0,0,1,.768-1.941h0a2.675,2.675,0,0,1,1.851-.677h0c1.4,0,2.438,1.264,2.483,2.935h0c0,3.115-3.612,6.637-8.713,6.682h0a11.548,11.548,0,0,1-7.63-3.3Z" transform="translate(0 -111.788)"/>
    </g>
    <g id="Group_1374" data-name="Group 1374" transform="translate(0 128.49)">
      <path id="Path_3506" data-name="Path 3506" class="cls-1" d="M225.457,300.8v-.5H220.4v.587A5.326,5.326,0,0,0,225.457,300.8Z" transform="translate(-120.895 -293.212)"/>
      <path id="Path_3507" data-name="Path 3507" class="cls-1" d="M157.345,298.387h1.58c.813,0,.632.632.632.632,0,.587-.406.632-.406.632h-1.535a2.636,2.636,0,0,0,3.657-.271V297.8H157.3Z" transform="translate(-86.283 -291.841)"/>
      <rect id="Rectangle_1460" data-name="Rectangle 1460" class="cls-1" width="1.67" height="1.129" transform="translate(98.467 12.686)"/>
      <path id="Path_3508" data-name="Path 3508" class="cls-1" d="M223.789,320.329H219.77V319.2H218.1v1.129c4.244,2.709,7.359,0,7.359,0V319.2h-1.67Z" transform="translate(-119.633 -303.579)"/>
      <path id="Path_3509" data-name="Path 3509" class="cls-1" d="M0,284.6v22.393H145.782V284.6Zm79.053,6.682s-.5.045.09-.993c0,0,1.084-2.393,1.58-2.483h3.205s.542.045.226.587l-.768,1.58s-.226.271.451.271c0,0,1.038-.226.542.632l-.632,1.58s-.361.406.271.406c0,0,.5-.181.5.768,0,0,.181,1.038-.768.948H79.415s-.948.135-.451-.632l1.354-2.709H79.053Zm-17.111,0s-.5.045.09-.993c0,0,1.084-2.393,1.58-2.483h3.205s.587.045.226.587l-.768,1.58s-.226.271.451.271c0,0,1.038-.226.542.632l-.632,1.58s-.406.406.271.406c0,0,.5-.181.5.768,0,0,.181,1.038-.768.948H62.3s-.9.135-.451-.632l1.354-2.709H61.942Zm-24.154-2.935h8.443s.542.181.9-.542.587-.993.993-.993h3.747s.5,0,.181.587l-.181.406s-.316.451.361.451h6.772a.686.686,0,0,1,.768.768v3.431s.09.406-.5.406h-3.3s-.5.181-.5-.451v-1.625s.135-.406-.406-.406H41.626s-.406-.09-.406.406v1.535s.181.587-.406.587H37.247s-.361.135-.361-.722v-2.438S36.84,288.347,37.789,288.347Zm-.406,7.675h2.077s1.174,0,1.445-.948a.706.706,0,0,1,.768-.5h2.935s.677-.135.316.722c0,0-.722,2.664-2.8,2.619h-4.74s-.5.09-.5-.542v-.993C36.886,296.338,36.8,296.022,37.382,296.022Zm-.5,5.282v-.993s-.135-.316.5-.316h2.077s3.025.271,3.612-.632c0,0,.948-1.49,1.354-1.49h3.205s.587-.135.361.451c0,0-1.129,3.612-3.251,3.522H37.382S36.886,301.982,36.886,301.3Zm28.262.361H61.04c-.948,0-4.018.045-4.786-.09a4.23,4.23,0,0,1-2.754-1.49v2.483a2.261,2.261,0,0,1-2.483,2.212H43.342a.5.5,0,0,1-.542-.542V303.2s-.045-.451.5-.451h5.327s.406.045.361-.451c0,0,.948-4.334-2.528-6.862a15.155,15.155,0,0,0-1.58-1.174s-.722-.271-.722-.813c0,0,.135-.451-.316-.451H42.3s-.271.045-.271-.406v-.948s0-.451.406-.451h11.6s.587-.09.587.677v.587a.485.485,0,0,1-.5.587h-4.74s-1.038,0-.406.406c0,0,3.386,2.212,3.928,3.838,0,0,.948-1.716,1.219-2.257,0,0,0-.406.993-.406h2.754s.722-.045.226.768c0,0-1.535,2.8-.948,3.476,0,0,.271.677,1.58.677l2.032.045h1.4a2.769,2.769,0,0,0,2.438-1.67h4.108c.542,0,.271.361.271.361C67.721,301.846,65.148,301.666,65.148,301.666Zm20.994,0h-2.8s-4.424.181-5.689-3.431c0,0-.271-.361.271-.361h4.108a2.769,2.769,0,0,0,2.438,1.67h1.986s.542-.09.542.677v1.038S87.18,301.666,86.142,301.666ZM94.4,293l-1.038,2.573v8.578s.135.542-.722.542h-3.07s-.542.181-.542-.5v-6.411s.181-.451-.5-.451h-12.6s-.632-.045-.632.542v5.237s0,1.58-2.077,1.58H67.541s-.722.09-.722-.542v-.993s-.045-.361.587-.361h2.98s.587.181.587-.5v-4.515s.135-.451-.587-.451H62.123a.442.442,0,0,1-.542-.452v-1.129s.045-.316.5-.316H70.43s1.129-.181.226-.722l-1.941-.722a1.223,1.223,0,0,1-.9-1.174v-3.973s-.045-.542.587-.542h1.761a.745.745,0,0,0,.993-.542s0-.813.587-.813h3.476a.821.821,0,0,1,.271.451l-.316.993h2.483s.677-.135.677.768V293.4s.09.406-.768.722l-1.851.677s-.9.5.09.722H85.826s1.038,0,1.309-.722l1.941-4.154h-1.67s-.632-.045-.632-.5v-1.535s-.135-.361.451-.361H88.67s.226-1.129.813-1.264h3.476s.361,0,.181.542l-.226.451s-.09.271.406.181h.632s.5-.09.181.406l-1.806,3.973h1.761C94.223,292.365,94.674,292.365,94.4,293Zm.451-5.057a.45.45,0,0,1,.5-.361h13.364s.587.09.587.542v.768s.045.361-.542.361H95.307s-.451.09-.451-.5Zm1.625,1.941h11.151a.368.368,0,0,1,.451.406v2.438a.541.541,0,0,1-.406.587,11.263,11.263,0,0,1-5.643,1.354s-3.838.045-5.824-1.49c0,0-.316.045-.316-.542v-2.3C95.893,290.379,95.8,289.882,96.48,289.882Zm12.957,11.6s-1.851,3.16-7.494,3.16c0,0-5.689-.406-7.088-3.025v-5.734s-.045-.542.406-.542h13.589s.542.045.542.5v5.643Z" transform="translate(0 -284.6)"/>
      <rect id="Rectangle_1461" data-name="Rectangle 1461" class="cls-1" width="1.67" height="1.129" transform="translate(104.155 12.686)"/>
    </g>
  </g>
</svg>
