<svg xmlns="http://www.w3.org/2000/svg" viewBox="0 0 165.872 40.5">
  <defs>
    <style>
      .cls-1 {
        fill: #fff;
      }
    </style>
  </defs>
  <g id="Group_1383" data-name="Group 1383" transform="translate(1813.252 1422.5)">
    <g id="Group_1372" data-name="Group 1372" transform="translate(-1813.252 -1419.06)">
      <path id="Path_3503" data-name="Path 3503" class="cls-1" d="M47.4,5.319a.338.338,0,0,1,.259-.119.232.232,0,0,1,.219.259.385.385,0,0,1-.119.259,23.635,23.635,0,0,0-5.709,15.536A23.549,23.549,0,0,0,47.736,36.71a.385.385,0,0,1,.119.259.232.232,0,0,1-.219.259.428.428,0,0,1-.259-.119L33.354,23.521A2.892,2.892,0,0,1,32.2,21.214a2.921,2.921,0,0,1,1.154-2.308L47.4,5.319" transform="translate(-32.2 -4.166)"/>
      <path id="Path_3504" data-name="Path 3504" class="cls-1" d="M132.159,0c-5.51,0-7.659,7.8-7.659,17.088s2.148,16.988,7.659,16.988c3.3,0,6.127-1.93,6.127-3.521a1.392,1.392,0,0,0-.418-.975,6.213,6.213,0,0,1-2.188-4.356,4.485,4.485,0,0,1,4.237-4.436c2.8,0,4.456,2.208,4.456,5.053a11.742,11.742,0,0,1-2.407,6.744.59.59,0,0,0-.08.219c0,.139.08.259.2.259a.373.373,0,0,0,.259-.139l14.064-13.587a2.892,2.892,0,0,0,1.154-2.308,2.921,2.921,0,0,0-1.154-2.308L142.364,1.154a.373.373,0,0,0-.259-.139c-.119,0-.2.119-.2.259a.382.382,0,0,0,.08.239,11.794,11.794,0,0,1,2.407,6.744c0,2.845-1.651,5.053-4.456,5.053A4.485,4.485,0,0,1,135.7,8.872a6.135,6.135,0,0,1,2.188-4.357,1.313,1.313,0,0,0,.418-.975C138.266,1.93,135.461,0,132.159,0Z" transform="translate(-106.139)"/>
    </g>
    <path id="Path_3505" data-name="Path 3505" class="cls-1" d="M15.032,217.4a3.2,3.2,0,0,1,1.335-2.671h0a5.677,5.677,0,0,1,3.385-.963h0a6.513,6.513,0,0,1,2.329.4h0V212.9c-.031-1.273-.5-2.019-1.957-2.019h0a4.4,4.4,0,0,0-1.367.248h0a1.72,1.72,0,0,1,.062.559h0a1.55,1.55,0,0,1-.4,1.118h0a1.491,1.491,0,0,1-1.118.466h0a1.472,1.472,0,0,1-1.46-1.522h0c.031-1.553,1.926-2.609,4.441-2.609h0c2.019,0,3.261.466,3.944,1.335h0c.621.776.652,1.895.652,3.51h0v4.162c0,.807.466,1.025,1.46,1.18h0l.124.031v.124a1.687,1.687,0,0,1-1.739,1.615H24.5a2.2,2.2,0,0,1-2.081-1.273h0a5.2,5.2,0,0,1-3.323,1.3h0a3.824,3.824,0,0,1-4.069-3.727Zm71.619,3.2a3.18,3.18,0,0,1-.435-1.087h0a6.486,6.486,0,0,1-.466.466h0a4.168,4.168,0,0,1-2.888,1.149h0a3.762,3.762,0,0,1-2.919-1.242h0c-1.025-1.211-1.025-2.764-1.025-4.969h0V212.8c-.031-.839-.28-1.149-1.087-1.18h0a1.391,1.391,0,0,0-.342.031H77.4l-.031-.093a1.246,1.246,0,0,1-.093-.466h0c.031-1.025,1.335-1.584,2.081-1.739h0c.28-.031.528-.093.745-.093h0a1.61,1.61,0,0,1,1.367.559h0a2.291,2.291,0,0,1,.4,1.429h0l-.031,3.6a8.168,8.168,0,0,0,.373,2.982h0a1.509,1.509,0,0,0,1.584.932h0a1.969,1.969,0,0,0,1.8-.963h0a4.313,4.313,0,0,0,.466-2.112h0v-2.919c-.031-.839-.28-1.149-1.087-1.18h0a1.392,1.392,0,0,0-.342.031h-.093l-.031-.093a1.246,1.246,0,0,1-.093-.466h0c.031-1.025,1.3-1.584,2.081-1.739h0a6.621,6.621,0,0,1,.776-.093h0a1.61,1.61,0,0,1,1.367.559h0a2.291,2.291,0,0,1,.4,1.429h0c0,.4-.031,1.149-.031,4.224h0c0,1.3-.031,1.988-.031,2.205h0c.031.9.311,1.273,1.149,1.3h0a.86.86,0,0,0,.28-.031H90.5l.031.093a1.219,1.219,0,0,1,.093.435h0c-.031.994-1.335,1.4-2.081,1.553h0a6.461,6.461,0,0,1-.714.093H87.8a1.266,1.266,0,0,1-1.149-.5Zm-41.027-5.28a6.377,6.377,0,0,1,1.615-4.441h0a5.748,5.748,0,0,1,4.255-1.739h0a4.672,4.672,0,0,1,3.541,1.429h0a4.37,4.37,0,0,1,1.149,2.95h0a3.439,3.439,0,0,1-.373,1.615h0l-.031.062H48.667a3.511,3.511,0,0,0,3.727,3.541h0a3.911,3.911,0,0,0,2.857-1.242h0l.062-.093.093.062a1.032,1.032,0,0,1,.435.932h0c0,1.18-1.4,2.733-4.5,2.733h0a5.78,5.78,0,0,1-5.715-5.808ZM70.842,221.1a5.769,5.769,0,0,1-4.131-1.646h0A6.017,6.017,0,0,1,65,215.1h0a5.878,5.878,0,0,1,5.932-5.963h0a5.709,5.709,0,0,1,4.193,1.646h0a5.954,5.954,0,0,1,1.646,4.317h0a6.124,6.124,0,0,1-1.708,4.348h0a5.909,5.909,0,0,1-4.224,1.646Zm21.8-.373c-.5-.124-.807-.4-.807-.807h0a1.841,1.841,0,0,1,.124-.528h0l.031-.062h.062a1.793,1.793,0,0,0,.776-.342h0c.28-.248.4-.59.4-1.522h0V212.68c-.031-.807-.217-1.087-.87-1.118h0a3.461,3.461,0,0,0-.528.062h0l-.093.031-.031-.093a1.545,1.545,0,0,1-.093-.5h0c.031-.963,1.056-1.46,1.77-1.677h0a2.378,2.378,0,0,1,.776-.124h0c.963,0,1.46.683,1.708,1.553h0a3.243,3.243,0,0,1,2.609-1.708h0a1.743,1.743,0,0,1,1.863,1.739h0a1.618,1.618,0,0,1-1.522,1.677h0a1.5,1.5,0,0,1-1.491-1.149h0c-.528.186-1.3.87-1.3,3.2h0v2.888c0,.932.124,1.273.4,1.522h0a2.61,2.61,0,0,0,1.056.342h.062l.031.062a1.386,1.386,0,0,1,.155.559h0c0,.373-.28.652-.745.776h0a8.6,8.6,0,0,1-2.081.186h0a7.259,7.259,0,0,1-2.267-.186Zm-34.443,0c-.5-.124-.807-.4-.807-.807h0a1.183,1.183,0,0,1,.124-.528h0l.031-.062h.062a1.793,1.793,0,0,0,.776-.342h0c.28-.248.4-.59.4-1.522h0V211.19l-1.677-.062-.031-.062a1.44,1.44,0,0,1-.124-.59h0a1,1,0,0,1,1.056-1.025h.745v-.683a5.546,5.546,0,0,1,.745-3.261h0a3.855,3.855,0,0,1,3.541-1.708h0c2.174,0,4.006,1.025,4.037,2.64h0a1.531,1.531,0,0,1-1.522,1.584h0a1.505,1.505,0,0,1-1.491-1.46h0a1.485,1.485,0,0,1,.248-.839h0a1.81,1.81,0,0,0-1.087-.311h0a1.323,1.323,0,0,0-1.273.621h0a3.129,3.129,0,0,0-.311,1.615h0v1.8h2.888l.031.062a1.48,1.48,0,0,1,.124.621h0a1.125,1.125,0,0,1-1.025,1.149h0a4.585,4.585,0,0,1-.652.031h0c-.466,0-.963-.031-1.3-.031h0v6.243c0,.932.155,1.273.435,1.522h0a2.978,2.978,0,0,0,1.18.342h.062l.031.062a.876.876,0,0,1,.124.466h0c0,.435-.342.714-.87.839h0a8.689,8.689,0,0,1-2.267.217h0a8.959,8.959,0,0,1-2.205-.248Zm-20.218,0c-.5-.124-.807-.4-.807-.807h0a1.183,1.183,0,0,1,.124-.528h0l.031-.062h.062a1.793,1.793,0,0,0,.776-.342h0c.28-.248.4-.59.4-1.522h0V212.68c-.031-.807-.217-1.087-.87-1.118h0a3.461,3.461,0,0,0-.528.062h0l-.093.031-.031-.093a1.578,1.578,0,0,1-.093-.528h0c.031-.963,1.056-1.429,1.77-1.646h0a2.378,2.378,0,0,1,.776-.124h0a1.766,1.766,0,0,1,1.708,1.553h0a3.2,3.2,0,0,1,2.609-1.677h0a1.778,1.778,0,0,1,1.863,1.739h0a1.622,1.622,0,0,1-1.553,1.677h0a1.444,1.444,0,0,1-1.46-1.149h0c-.559.186-1.335.87-1.335,3.2h0v2.888c0,.932.124,1.273.435,1.522h0a2.641,2.641,0,0,0,1.025.342h.062l.031.062a1.265,1.265,0,0,1,.155.559h0c0,.373-.28.652-.745.776h0a8.6,8.6,0,0,1-2.081.186h0a7.984,7.984,0,0,1-2.236-.217Zm-9.566,0c-.5-.124-.807-.4-.807-.807h0a1.841,1.841,0,0,1,.124-.528h0l.031-.062h.062a1.793,1.793,0,0,0,.776-.342h0c.28-.248.4-.59.4-1.522h0V212.68c-.031-.807-.217-1.087-.87-1.118h0a3.461,3.461,0,0,0-.528.062h0l-.093.031-.031-.093a1.578,1.578,0,0,1-.093-.528h0c.031-.963,1.056-1.429,1.77-1.646h0a2.378,2.378,0,0,1,.776-.124h0a1.766,1.766,0,0,1,1.708,1.553h0a3.2,3.2,0,0,1,2.609-1.677h0a1.76,1.76,0,0,1,1.863,1.739h0a1.622,1.622,0,0,1-1.553,1.677h0a1.444,1.444,0,0,1-1.46-1.149h0c-.559.186-1.335.87-1.335,3.2h0v2.888c0,.932.124,1.273.435,1.522h0a2.642,2.642,0,0,0,1.025.342h.062l.031.062a1.265,1.265,0,0,1,.155.559h0c0,.373-.28.652-.745.776h0a8.6,8.6,0,0,1-2.081.186h0a8.277,8.277,0,0,1-2.236-.217Zm39.847-5.963c0,3.137,1.367,4.472,2.7,4.5h0c1.522,0,2.64-1.335,2.64-4.006h0a5.892,5.892,0,0,0-.807-3.23h0a2.332,2.332,0,0,0-1.957-1.149h0c-1.584,0-2.578,1.429-2.578,3.882Zm-48.015.652c-1.273,0-2.112.59-2.112,1.77h0a1.778,1.778,0,0,0,1.926,1.863h0a2.687,2.687,0,0,0,2.019-1.025h0v-1.615a.827.827,0,0,0-.466-.652h0a2.5,2.5,0,0,0-1.367-.342Zm32.642-1.895a.393.393,0,0,0,.342-.124h0a1.08,1.08,0,0,0,.062-.4h0a2.122,2.122,0,0,0-2.174-2.081h0c-1.646,0-2.3,1.3-2.422,2.64h4.193ZM2.267,219.047A8.642,8.642,0,0,1,0,212.96H0a8.688,8.688,0,0,1,2.236-6.025h0a7.143,7.143,0,0,1,5.187-2.329h0c3.51,0,5.994,2.454,5.994,4.6h0a1.827,1.827,0,0,1-1.677,2.019h0a1.9,1.9,0,0,1-1.273-.466h0a1.73,1.73,0,0,1-.528-1.3h0a2.078,2.078,0,0,1,.59-1.367h0a3.04,3.04,0,0,0-2.8-1.46h0a3.53,3.53,0,0,0-2.982,1.739h0a8.312,8.312,0,0,0-1.18,4.6h0a8.31,8.31,0,0,0,1.211,4.6h0A3.58,3.58,0,0,0,7.8,219.3h0a3,3,0,0,0,2.8-1.46h0A1.925,1.925,0,0,1,10,216.5h0a1.873,1.873,0,0,1,.528-1.335h0A1.84,1.84,0,0,1,11.8,214.7h0a1.869,1.869,0,0,1,1.708,2.019h0c0,2.143-2.485,4.565-5.994,4.6h0a7.944,7.944,0,0,1-5.249-2.267Z" transform="translate(-1747.727 -1626.297)"/>
    <g id="Group_1374" data-name="Group 1374" transform="translate(-1747.727 -1397.405)">
      <path id="Path_3506" data-name="Path 3506" class="cls-1" d="M223.878,300.642V300.3H220.4v.4A3.664,3.664,0,0,0,223.878,300.642Z" transform="translate(-151.949 -295.424)"/>
      <path id="Path_3507" data-name="Path 3507" class="cls-1" d="M157.331,298.2h1.087c.559,0,.435.435.435.435,0,.4-.28.435-.28.435h-1.056a1.813,1.813,0,0,0,2.516-.186V297.8H157.3Z" transform="translate(-108.446 -293.7)"/>
      <rect id="Rectangle_1460" data-name="Rectangle 1460" class="cls-1" width="1.149" height="0.776" transform="translate(67.737 8.727)"/>
      <path id="Path_3508" data-name="Path 3508" class="cls-1" d="M222.013,319.976h-2.764V319.2H218.1v.776a4.221,4.221,0,0,0,5.062,0V319.2h-1.149Z" transform="translate(-150.363 -308.454)"/>
      <path id="Path_3509" data-name="Path 3509" class="cls-1" d="M0,284.6V300H100.285V284.6Zm54.382,4.6s-.342.031.062-.683c0,0,.745-1.646,1.087-1.708h2.205s.373.031.155.4l-.528,1.087s-.155.186.311.186c0,0,.714-.155.373.435L57.612,290s-.248.279.186.279c0,0,.342-.124.342.528,0,0,.124.714-.528.652H54.63s-.652.093-.311-.435l.932-1.863h-.87Zm-11.771,0s-.342.031.062-.683c0,0,.745-1.646,1.087-1.708h2.205s.4.031.155.4l-.528,1.087s-.155.186.311.186c0,0,.714-.155.373.435L45.841,290s-.28.279.186.279c0,0,.342-.124.342.528,0,0,.124.714-.528.652H42.859s-.621.093-.311-.435l.932-1.863h-.87ZM26,287.178H31.8s.373.124.621-.373.4-.683.683-.683h2.578s.342,0,.124.4l-.124.28s-.217.311.248.311h4.659a.472.472,0,0,1,.528.528V290s.062.279-.342.279H38.511s-.342.124-.342-.311v-1.118s.093-.279-.28-.279H28.635s-.28-.062-.28.279v1.056s.124.4-.28.4H25.622s-.248.093-.248-.5v-1.677S25.343,287.178,26,287.178Zm-.28,5.28h1.429s.807,0,.994-.652a.486.486,0,0,1,.528-.342h2.019s.466-.093.217.5c0,0-.5,1.832-1.926,1.8H25.716s-.342.062-.342-.373v-.683C25.374,292.675,25.312,292.458,25.716,292.458Zm-.342,3.634v-.683s-.093-.217.342-.217h1.429s2.081.186,2.485-.435c0,0,.652-1.025.932-1.025h2.205s.4-.093.248.311c0,0-.776,2.485-2.236,2.423H25.716S25.374,296.557,25.374,296.091Zm19.442.248H41.99c-.652,0-2.764.031-3.292-.062a2.91,2.91,0,0,1-1.895-1.025v1.708a1.555,1.555,0,0,1-1.708,1.522h-5.28a.342.342,0,0,1-.373-.373V297.4s-.031-.311.342-.311h3.665s.28.031.248-.311a4.842,4.842,0,0,0-1.739-4.721,10.421,10.421,0,0,0-1.087-.807s-.5-.186-.5-.559c0,0,.093-.311-.217-.311H29.1s-.186.031-.186-.28v-.652s0-.311.28-.311h7.982s.4-.062.4.466v.4a.334.334,0,0,1-.342.4H33.977s-.714,0-.28.28c0,0,2.329,1.522,2.7,2.64,0,0,.652-1.18.839-1.553,0,0,0-.28.683-.28h1.895s.5-.031.155.528c0,0-1.056,1.926-.652,2.391,0,0,.186.466,1.087.466l1.4.031h.963a1.9,1.9,0,0,0,1.677-1.149H47.27c.373,0,.186.248.186.248C46.586,296.464,44.816,296.34,44.816,296.34Zm14.442,0H57.332s-3.044.124-3.913-2.36c0,0-.186-.248.186-.248h2.826a1.9,1.9,0,0,0,1.677,1.149h1.367s.373-.062.373.466v.714S59.972,296.34,59.258,296.34Zm5.684-5.963-.714,1.77v5.9s.093.373-.5.373H61.618s-.373.124-.373-.342v-4.41s.124-.311-.342-.311H52.239s-.435-.031-.435.373v3.6s0,1.087-1.429,1.087H46.462s-.5.062-.5-.373v-.683s-.031-.248.4-.248h2.05s.4.124.4-.342v-3.106s.093-.311-.4-.311H42.735a.3.3,0,0,1-.373-.311v-.776s.031-.217.342-.217H48.45s.776-.124.155-.5l-1.335-.5a.841.841,0,0,1-.621-.807v-2.733s-.031-.373.4-.373h1.211a.512.512,0,0,0,.683-.373s0-.559.4-.559h2.391a.564.564,0,0,1,.186.311l-.217.683h1.708s.466-.093.466.528v2.919s.062.28-.528.5l-1.273.466s-.621.342.062.5H59.04s.714,0,.9-.5l1.335-2.857H60.127s-.435-.031-.435-.342v-1.056s-.093-.248.311-.248H61s.155-.776.559-.87h2.391s.248,0,.124.373l-.155.311s-.062.186.28.124h.435s.342-.062.124.279l-1.242,2.733h1.211C64.817,289.942,65.128,289.942,64.941,290.377Zm.311-3.478a.31.31,0,0,1,.342-.248h9.193s.4.062.4.373v.528s.031.248-.373.248H65.563s-.311.062-.311-.342Zm1.118,1.335h7.671a.253.253,0,0,1,.311.28v1.677a.372.372,0,0,1-.28.4,7.748,7.748,0,0,1-3.882.932s-2.64.031-4.006-1.025c0,0-.217.031-.217-.373v-1.584C65.966,288.575,65.9,288.234,66.37,288.234Zm8.914,7.982s-1.273,2.174-5.156,2.174c0,0-3.913-.28-4.876-2.081v-3.944s-.031-.373.28-.373H74.88s.373.031.373.342v3.882Z" transform="translate(0 -284.6)"/>
      <rect id="Rectangle_1461" data-name="Rectangle 1461" class="cls-1" width="1.149" height="0.776" transform="translate(71.65 8.727)"/>
    </g>
  </g>
</svg>
