<svg xmlns="http://www.w3.org/2000/svg" viewBox="0 0 30.6 18.481">
  <defs>
    <style>
      .cls-1 {
        fill: #fff;
      }
    </style>
  </defs>
  <g id="運輸紀錄" transform="translate(-21 -434.91)">
    <path id="Path_916" data-name="Path 916" class="cls-1" d="M34.56,21.941a.476.476,0,0,0-.068-.34c-4.214-8.089-8.361-8.7-9.448-8.7H10.7a.68.68,0,0,0-.612.68.612.612,0,0,0,.612.612H24.907c.068,0,3.195-.272,6.933,5.37H26.878a1.088,1.088,0,0,1-1.088-1.156V16.095a.647.647,0,0,0-1.292,0v2.311a2.379,2.379,0,0,0,2.379,2.515h5.71a6.457,6.457,0,0,1,.68,1.156h0v4.962a.884.884,0,0,1-.816.816h-.884a2.855,2.855,0,0,0-5.574,0H19.061a2.855,2.855,0,0,0-5.574,0H12.4a.884.884,0,0,1-.816-.816V25.883h1.088a.646.646,0,0,0,0-1.292H7.778a.648.648,0,1,0,0,1.292h2.515v1.156A2.107,2.107,0,0,0,12.4,29.146h1.088a2.855,2.855,0,0,0,5.574,0h6.933a2.855,2.855,0,0,0,5.574,0h.884a2.107,2.107,0,0,0,2.107-2.107ZM16.274,30.1a1.5,1.5,0,0,1-1.427-.952,1.088,1.088,0,0,1-.136-.68,1.02,1.02,0,0,1,.136-.612,1.563,1.563,0,0,1,2.855,0,1.971,1.971,0,0,1,.136.612,2.039,2.039,0,0,1-.136.68,1.631,1.631,0,0,1-1.427.952Zm12.507,0a1.563,1.563,0,0,1-1.427-.952,2.039,2.039,0,0,1-.136-.68,1.971,1.971,0,0,1,.136-.612,1.563,1.563,0,0,1,2.855,0,1.971,1.971,0,0,1,.136.612,1.088,1.088,0,0,1-.136.68,1.5,1.5,0,0,1-1.427.952Z" transform="translate(17.033 422.01)"/>
    <path id="Path_917" data-name="Path 917" class="cls-1" d="M6.38,18.492h8.293a.647.647,0,1,0,0-1.292H6.38a.647.647,0,1,0,0,1.292Z" transform="translate(17.479 420.633)"/>
    <path id="Path_918" data-name="Path 918" class="cls-1" d="M14.325,26.31a.68.68,0,0,0-.68-.612H3.178a.648.648,0,1,0,0,1.292H13.646A.68.68,0,0,0,14.325,26.31Z" transform="translate(18.506 417.913)"/>
    <path id="Path_919" data-name="Path 919" class="cls-1" d="M7.8,22.08a.68.68,0,0,0,.68.68h9.312a.68.68,0,0,0,0-1.359H8.48A.68.68,0,0,0,7.8,22.08Z" transform="translate(16.807 419.288)"/>
  </g>
</svg>
