<svg xmlns="http://www.w3.org/2000/svg" viewBox="0 0 10.002 23.208">
  <defs>
    <style>
      .cls-1 {
        fill: #fff;
      }
    </style>
  </defs>
  <g id="溫度監測" transform="translate(-31 -99.375)">
    <path id="Path_2518" data-name="Path 2518" class="cls-1" d="M7.958,14.175V2.959a2.957,2.957,0,1,0-5.913,0V14.177a5,5,0,1,0,5.913,0ZM5,22.266a4.06,4.06,0,0,1-2.229-7.453l.212-.139V2.959a2.017,2.017,0,1,1,4.034,0V14.675l.212.139A4.058,4.058,0,0,1,5,22.266Z" transform="translate(31 99.375)"/>
    <path id="Path_2519" data-name="Path 2519" class="cls-1" d="M112.85,378.84l-.748-.49v-.908a.865.865,0,0,0,.018-.175V371.15a.85.85,0,0,0-1.7,0v6.115a.8.8,0,0,0,.024.2v.887l-.748.49a2.873,2.873,0,1,0,3.153,0Z" transform="translate(-75.273 -263.66)"/>
  </g>
</svg>
