<svg xmlns="http://www.w3.org/2000/svg" viewBox="0 0 24.753 22.625">
  <defs>
    <style>
      .cls-1 {
        fill: #fff;
      }
    </style>
  </defs>
  <g id="巡檢紀錄" transform="translate(-24 -299.375)">
    <path id="Path_2560" data-name="Path 2560" class="cls-1" d="M17.461,17.816l-.749.236a.217.217,0,0,0-.118.2v2.523a.707.707,0,0,1-.709.709H1.853a.707.707,0,0,1-.709-.709V5.282l4.572-3.9V5.794H3.745a.25.25,0,0,0-.2.236V6.78a.186.186,0,0,0,.2.2H6.661a.186.186,0,0,0,.2-.2V1.143h9.026a.707.707,0,0,1,.709.709V6.11a.217.217,0,0,0,.118.2.173.173,0,0,0,.2-.039l.749-.749c.039-.039.039-.079.039-.158V1.853A1.793,1.793,0,0,0,15.885,0H5.755A.748.748,0,0,0,5.4.118L.2,4.572a.47.47,0,0,0-.2.355V20.772a1.85,1.85,0,0,0,1.853,1.853H15.885a1.85,1.85,0,0,0,1.853-1.853v-2.8a.2.2,0,0,0-.079-.158A.179.179,0,0,0,17.461,17.816Z" transform="translate(24 299.375)"/>
    <path id="Path_2561" data-name="Path 2561" class="cls-1" d="M17.1,27.685a1.646,1.646,0,0,1,.434-.591l.079-.079c.039-.039.079-.158.039-.2a.335.335,0,0,0-.2-.118H9.291a.591.591,0,0,0,0,1.182h7.647A.692.692,0,0,0,17.1,27.685Z" transform="translate(18.729 283.199)"/>
    <path id="Path_2562" data-name="Path 2562" class="cls-1" d="M19.105,42.579a.2.2,0,0,0-.158-.079H15.991a.591.591,0,1,0,0,1.182h3a.3.3,0,0,0,.158-.079.237.237,0,0,0,.039-.158,1.91,1.91,0,0,1,0-.67C19.145,42.7,19.145,42.618,19.105,42.579Z" transform="translate(14.67 273.627)"/>
    <path id="Path_2563" data-name="Path 2563" class="cls-1" d="M15.913,35.525l.276-.749c.039-.079,0-.118-.039-.2a.2.2,0,0,0-.158-.079h-6.7a.591.591,0,0,0,0,1.182h6.464C15.834,35.682,15.874,35.6,15.913,35.525Z" transform="translate(18.729 278.474)"/>
    <path id="Path_2564" data-name="Path 2564" class="cls-1" d="M42.235,15.375l-3.666-3.666a.191.191,0,0,0-.276,0l-7.371,7.41a.335.335,0,0,0-.118.2L28.951,24.2a.641.641,0,0,0,.118.591.565.565,0,0,0,.394.158.355.355,0,0,0,.2-.039L34.509,23.3a.824.824,0,0,0,.236-.158L40.224,17.7a.191.191,0,0,0,0-.276l-.512-.512a.191.191,0,0,0-.276,0l-4.651,4.612L32.459,19.2l5.991-5.991,3,3a.191.191,0,0,0,.276,0l.512-.512c.039-.039.039-.079.039-.158S42.274,15.414,42.235,15.375Zm-8.277,6.937-2.483.828-.631-.631.867-2.444Z" transform="translate(6.479 292.317)"/>
  </g>
</svg>
