<svg xmlns="http://www.w3.org/2000/svg" viewBox="0 0 22.54 22.75">
  <defs>
    <style>
      .cls-1 {
        fill: #fff;
      }
    </style>
  </defs>
  <g id="異常紀錄" transform="translate(-25 -234.916)">
    <path id="Path_2522" data-name="Path 2522" class="cls-1" d="M17.624,20.184a6.346,6.346,0,0,1-.731.007.16.16,0,0,0-.127.049.176.176,0,0,0-.056.127v.542a.748.748,0,0,1-.738.738H1.843a.748.748,0,0,1-.738-.738V5.289L5.746,1.336V5.865h-2a.174.174,0,0,0-.176.176v.752a.174.174,0,0,0,.176.176H6.674a.174.174,0,0,0,.176-.176V1.1h9.114a.748.748,0,0,1,.738.738v2a.174.174,0,0,0,.176.176h.752a.174.174,0,0,0,.176-.176v-2A1.844,1.844,0,0,0,15.964,0H5.893a.25.25,0,0,0-.07.014H5.788a.551.551,0,0,0-.345.127L.2,4.606a.548.548,0,0,0-.19.359L0,5.021V20.908A1.844,1.844,0,0,0,1.843,22.75H15.971a1.844,1.844,0,0,0,1.843-1.843v-.549a.165.165,0,0,0-.056-.127A.222.222,0,0,0,17.624,20.184Z" transform="translate(25 234.916)"/>
    <path id="Path_2523" data-name="Path 2523" class="cls-1" d="M51.956,149.311h6.315a.173.173,0,0,0,.169-.127,7.85,7.85,0,0,1,.274-.738.179.179,0,0,0-.014-.169.174.174,0,0,0-.148-.077h-6.6a.556.556,0,0,0,0,1.111Z" transform="translate(-22.785 97.139)"/>
    <path id="Path_2524" data-name="Path 2524" class="cls-1" d="M51.956,194.111h6.118a.173.173,0,0,0,.134-.063.177.177,0,0,0,.042-.141,6.591,6.591,0,0,1-.084-.738A.183.183,0,0,0,57.99,193H51.956a.556.556,0,0,0,0,1.111Z" transform="translate(-22.785 55.489)"/>
    <path id="Path_2525" data-name="Path 2525" class="cls-1" d="M51.956,239h7.5a.162.162,0,0,0,.155-.1.171.171,0,0,0-.021-.183,5.909,5.909,0,0,1-.5-.738.169.169,0,0,0-.155-.084H51.956a.557.557,0,0,0-.556.556A.551.551,0,0,0,51.956,239Z" transform="translate(-22.785 13.747)"/>
    <path id="Path_2526" data-name="Path 2526" class="cls-1" d="M223.6,78.176v.752a.174.174,0,0,0,.176.176h2.693a.174.174,0,0,0,.176-.176v-.752a.174.174,0,0,0-.176-.176h-2.693A.179.179,0,0,0,223.6,78.176Z" transform="translate(-182.875 162.402)"/>
    <path id="Path_2527" data-name="Path 2527" class="cls-1" d="M177.806,113.164l-.091-.091.753-.851a.552.552,0,0,0-.042-.781.541.541,0,0,0-.366-.141.55.55,0,0,0-.415.19l-.788.879-.1-.063a5.386,5.386,0,1,0,1.048.858Zm.373,3.678a4.234,4.234,0,1,1-4.234-4.234A4.238,4.238,0,0,1,178.178,116.842Z" transform="translate(-131.743 131.443)"/>
    <path id="Path_2528" data-name="Path 2528" class="cls-1" d="M234.487,147.453l-.035-.028-.281-2.37a.17.17,0,0,0-.176-.155.175.175,0,0,0-.176.155l-.281,2.37-.028.021a.786.786,0,0,0-.309.619.795.795,0,0,0,1.589,0A.756.756,0,0,0,234.487,147.453Z" transform="translate(-191.8 100.206)"/>
  </g>
</svg>
