<svg xmlns="http://www.w3.org/2000/svg" viewBox="0 0 25.262 18.125">
  <defs>
    <style>
      .cls-1 {
        fill: #fff;
      }
    </style>
  </defs>
  <g id="設備監測" transform="translate(-24 -166.625)">
    <path id="Path_2534" data-name="Path 2534" class="cls-1" d="M72.117,172.2H63.926a.726.726,0,0,0,0,1.452h8.191a.726.726,0,0,0,0-1.452Z" transform="translate(-33.081 11.098)"/>
    <path id="Path_2535" data-name="Path 2535" class="cls-1" d="M52.562,31.5a.665.665,0,0,0-.358-.1.716.716,0,0,0-.62.358l-3.079,5.277L47.062,35.8a.729.729,0,0,0-1,.048l-1.694,1.762-1.394-2.014a.73.73,0,0,0-.6-.31h-.01a.713.713,0,0,0-.591.349l-2.537,4.183a.727.727,0,0,0,.61,1.1.718.718,0,0,0,.62-.349l1.956-3.234,1.268,1.82a.738.738,0,0,0,.562.31h.029a.718.718,0,0,0,.523-.223l1.82-1.9L48.215,38.7a.7.7,0,0,0,.474.174.4.4,0,0,0,.116-.01.728.728,0,0,0,.5-.349l3.515-6.022a.732.732,0,0,0-.261-1Z" transform="translate(-11.347 138.265)"/>
    <path id="Path_2536" data-name="Path 2536" class="cls-1" d="M16.469,14.175l-.116-.136H2.566a1.124,1.124,0,0,1-1.123-1.123V2.566A1.124,1.124,0,0,1,2.566,1.443H19.306a1.124,1.124,0,0,1,1.123,1.123V6.371l.329.048a4.732,4.732,0,0,1,.62.136l.494.145V2.566A2.564,2.564,0,0,0,19.306,0H2.566A2.57,2.57,0,0,0,0,2.566V12.906a2.57,2.57,0,0,0,2.566,2.566H17.951l-.852-.687A4.667,4.667,0,0,1,16.469,14.175Z" transform="translate(24 166.625)"/>
    <path id="Path_2537" data-name="Path 2537" class="cls-1" d="M176.25,82.555l-1.762-1.762a3.8,3.8,0,0,0,.639-2.13,3.872,3.872,0,1,0-1.656,3.166l1.743,1.743a.726.726,0,0,0,1.239-.513A.672.672,0,0,0,176.25,82.555Zm-4.977-1.472a2.421,2.421,0,1,1,2.421-2.421A2.421,2.421,0,0,1,171.273,81.084Z" transform="translate(-127.192 99.067)"/>
  </g>
</svg>
