<svg id="Group_1478" data-name="Group 1478" xmlns="http://www.w3.org/2000/svg" viewBox="0 0 25.99 17.281">
  <defs>
    <style>
      .cls-1 {
        fill: #fff;
      }
    </style>
  </defs>
  <path id="Path_3517" data-name="Path 3517" class="cls-1" d="M25.582,8.164C25.378,7.824,19.867,0,12.927,0S.544,7.824.34,8.164L0,8.641l.34.476c.2.34,5.647,8.164,12.655,8.164,6.94,0,12.383-7.824,12.655-8.164l.34-.476ZM12.927,15.308a6.668,6.668,0,1,1,6.668-6.668A6.678,6.678,0,0,1,12.927,15.308ZM2.041,8.641a25.426,25.426,0,0,1,3.47-3.674,8.357,8.357,0,0,0-.884,3.674,8.357,8.357,0,0,0,.884,3.674A22.02,22.02,0,0,1,2.041,8.641Zm18.37,3.674A8.357,8.357,0,0,0,21.3,8.641a8.357,8.357,0,0,0-.884-3.674,22.02,22.02,0,0,1,3.47,3.674A25.426,25.426,0,0,1,20.411,12.315Z"/>
  <path id="Path_3518" data-name="Path 3518" class="cls-1" d="M17.658,8.5a2.858,2.858,0,1,0,2.858,2.858A2.875,2.875,0,0,0,17.658,8.5Z" transform="translate(-4.73 -2.717)"/>
</svg>
