<svg xmlns="http://www.w3.org/2000/svg" viewBox="0 0 22.6 20.989">
  <defs>
    <style>
      .cls-1 {
        fill: #fff;
      }
    </style>
  </defs>
  <g id="收貨紀錄" transform="translate(-25 -367.997)">
    <path id="ICON-02_工作區域_1" data-name="ICON-02_工作區域 1" class="cls-1" d="M25.261,27.815H30.1V8.7H10.472a.71.71,0,0,0-.517.194.646.646,0,0,0,.065.969l6.523,5.748-4.65,4.714L8.6,17.418a.581.581,0,0,0-.9.065.71.71,0,0,0,0,.969L9.633,20.13v7.685H15.7l.387.969a1.808,1.808,0,0,0,.969.9h.452a1.55,1.55,0,0,0,.84-.258l.387-.194a1.033,1.033,0,0,0,.517.387h.517a2.2,2.2,0,0,0,.969-.258l.323-.194a1.292,1.292,0,0,0,.581.387h.387A1.679,1.679,0,0,0,23,29.236l.452-.258.452.194h.323A1.227,1.227,0,0,0,25,28.913a.581.581,0,0,0,.194-.775.646.646,0,0,0-.84-.194h-.129c-.065,0-.129-.129-.194-.258l-1.356-2.712a.581.581,0,0,0-.775-.258.517.517,0,0,0-.258.71L22.872,28.2l-.517.258a.387.387,0,0,1-.323.129c-.129,0-.194-.194-.258-.258l-1.033-2.519c-.065-.258-.452-.387-.71-.323a.581.581,0,0,0-.323.775l.84,2-.387.258a.581.581,0,0,1-.452.065.258.258,0,0,1-.258-.258L18.8,26.717a.581.581,0,0,0-.71-.323.646.646,0,0,0-.387.775l.452,1.162-.387.194c-.129.065-.258.129-.323.065l-.194-.129L16.22,26.2v-.129h0l-2-4.521h0l-.9.9,1.808,4H10.989V21.293l.517.452a.581.581,0,0,0,.452.194.71.71,0,0,0,.452-.194h0l5.554-5.683h.065a.71.71,0,0,0-.065-.9l-5.748-5.1h5.3v3.552h4.65V9.991h6.587V26.459H25.907l-1.937-4,1.615.452a2.389,2.389,0,0,0,1.55-.323,1.744,1.744,0,0,0,.775-1.421v-.129a.646.646,0,0,0-.258-.646l-5.489-2.906a.065.065,0,0,0-.065-.065h-.129L18.8,16.837l-.969,1.033,3.875.646,5.037,2.712a.581.581,0,0,1-.258.387.9.9,0,0,1-.646.129l-2.519-.71L23,20.453a.581.581,0,1,0-1.033.517l.71,1.421a.065.065,0,0,0,.065.065l1.873,4h0ZM20.805,12.187H18.868V10.056h1.937Z" transform="translate(17.495 359.298)"/>
  </g>
</svg>
