<svg xmlns="http://www.w3.org/2000/svg" viewBox="0 0 21.14 21.752">
  <defs>
    <style>
      .cls-1 {
        fill: #fff;
      }
    </style>
  </defs>
  <g id="校正紀錄" transform="translate(-26 -497.248)">
    <circle id="Ellipse_25" data-name="Ellipse 25" class="cls-1" cx="0.737" cy="0.737" r="0.737" transform="translate(29.06 500.124)"/>
    <circle id="Ellipse_26" data-name="Ellipse 26" class="cls-1" cx="0.737" cy="0.737" r="0.737" transform="translate(31.936 500.124)"/>
    <circle id="Ellipse_27" data-name="Ellipse 27" class="cls-1" cx="0.737" cy="0.737" r="0.737" transform="translate(29.06 506.281)"/>
    <circle id="Ellipse_28" data-name="Ellipse 28" class="cls-1" cx="0.737" cy="0.737" r="0.737" transform="translate(31.936 506.281)"/>
    <circle id="Ellipse_29" data-name="Ellipse 29" class="cls-1" cx="0.737" cy="0.737" r="0.737" transform="translate(29.06 512.474)"/>
    <circle id="Ellipse_30" data-name="Ellipse 30" class="cls-1" cx="0.737" cy="0.737" r="0.737" transform="translate(31.936 512.474)"/>
    <path id="Path_2565" data-name="Path 2565" class="cls-1" d="M9.033,18.507H2.47a1.4,1.4,0,0,1-1.4-1.4V13.42h9.659a.192.192,0,0,0,.147-.074l.406-.7a.167.167,0,0,0,0-.184.2.2,0,0,0-.147-.111H1.069V7.226H14.452a.192.192,0,0,0,.147-.074l.406-.7a.167.167,0,0,0,0-.184.2.2,0,0,0-.147-.111H1.069V2.47a1.4,1.4,0,0,1,1.4-1.4H15.153a1.4,1.4,0,0,1,1.4,1.4V5.088a.192.192,0,0,0,.074.147l.7.442a.167.167,0,0,0,.184,0,.2.2,0,0,0,.111-.147V2.47A2.47,2.47,0,0,0,15.153,0H2.47A2.47,2.47,0,0,0,0,2.47V17.107a2.47,2.47,0,0,0,2.47,2.47H8.959a.169.169,0,0,0,.184-.147l.074-.7a.222.222,0,0,0-.037-.147A.279.279,0,0,0,9.033,18.507Z" transform="translate(26 497.248)"/>
    <path id="Path_2566" data-name="Path 2566" class="cls-1" d="M39.032,21.754l-4.313-2.618a.222.222,0,0,0-.147-.037c-.037,0-.074.037-.111.074l-5.309,8.774a.524.524,0,0,0-.074.221l-.59,5.051a.5.5,0,0,0,.258.516.7.7,0,0,0,.295.074.868.868,0,0,0,.295-.074l4.2-2.654c.074-.037.111-.111.184-.184l3.945-6.526a.194.194,0,0,0-.074-.258L37,23.745a.222.222,0,0,0-.147-.037c-.037,0-.074.037-.111.074l-3.281,5.456-2.8-1.7L34.9,20.5l3.576,2.138a.194.194,0,0,0,.258-.074l.369-.59A.177.177,0,0,0,39.032,21.754ZM32.986,30.16l-2.4,1.512-.774-.442.332-2.765Z" transform="translate(8.019 485.19)"/>
  </g>
</svg>
