<svg xmlns="http://www.w3.org/2000/svg" viewBox="0 0 19.849 22.833">
  <defs>
    <style>
      .cls-1 {
        fill: #fff;
      }
    </style>
  </defs>
  <g id="匯出報表" transform="translate(-26 -563.833)">
    <path id="Path_2520" data-name="Path 2520" class="cls-1" d="M134.071,158.088l-5.319-5.343a1.074,1.074,0,0,0-1.479,0l-5.349,5.343a1,1,0,0,0-.125,1.02.674.674,0,0,0,.626.459l2.844-.006v.018l.227-.018h.012a.736.736,0,0,0,.072-1.443v-.024H124l4.019-4.013,4,4.013h-2.367v7.383l.006.078v.012a.731.731,0,0,0,1.455-.107l.006-5.9H133.5a.748.748,0,0,0,.733-.471A.975.975,0,0,0,134.071,158.088Z" transform="translate(-88.458 420.474)"/>
    <path id="Path_2521" data-name="Path 2521" class="cls-1" d="M11.133,19.458v-.03l-9.207-.006a.463.463,0,0,1-.459-.459V5.212l3.84-3.274V5.421H3.614V5.409l-.227.018H3.375a.733.733,0,0,0-.632.728A.741.741,0,0,0,3.3,6.87v.024H6.774V1.473h7.943a.463.463,0,0,1,.459.459v7l1.467,1.473V1.926A1.929,1.929,0,0,0,14.717,0H5.665L5.552.012A.747.747,0,0,0,5.1.185L.262,4.311a.724.724,0,0,0-.25.477v.006L0,18.969A1.929,1.929,0,0,0,1.926,20.9l8.885.006v.018l.221-.018h.012a.733.733,0,0,0,.632-.728A.749.749,0,0,0,11.133,19.458Z" transform="translate(26 563.833)"/>
  </g>
</svg>
