<svg id="password" xmlns="http://www.w3.org/2000/svg" width="15.333" height="15.333" viewBox="0 0 15.333 15.333">
  <path id="Path_574" data-name="Path 574" d="M0,0H15.334V15.334H0Z" fill="none"/>
  <path id="Path_575" data-name="Path 575" d="M12.274,5.376h-.591V4.126A3.045,3.045,0,0,0,8.728,1,3.045,3.045,0,0,0,5.773,4.126v1.25H5.182A1.221,1.221,0,0,0,4,6.627v6.252a1.221,1.221,0,0,0,1.182,1.25h7.092a1.221,1.221,0,0,0,1.182-1.25V6.627A1.221,1.221,0,0,0,12.274,5.376ZM8.728,11A1.252,1.252,0,1,1,9.91,9.753,1.221,1.221,0,0,1,8.728,11ZM10.56,5.376H6.9V4.126A1.889,1.889,0,0,1,8.728,2.188,1.889,1.889,0,0,1,10.56,4.126Z" transform="translate(-1.061 -0.265)" fill="#004ea2"/>
</svg>
