<?xml version="1.0" encoding="utf-8"?>
<!-- Generator: Adobe Illustrator 22.1.0, SVG Export Plug-In . SVG Version: 6.00 Build 0)  -->
<svg version="1.1" id="圖層_1" xmlns="http://www.w3.org/2000/svg" xmlns:xlink="http://www.w3.org/1999/xlink" x="0px" y="0px"
	 viewBox="0 0 22.7 22.7" style="enable-background:new 0 0 22.7 22.7;" xml:space="preserve">
<style type="text/css">
	.st0{fill:#FFFFFF;}
</style>
<g>
	<path class="st0" d="M11.3,5.2C8,5.2,5.2,8,5.2,11.3s2.7,6.1,6.1,6.1c3.4,0,6.1-2.7,6.1-6.1C17.4,8,14.7,5.2,11.3,5.2z M13.1,13.3
		c0,0.9-0.8,1.7-1.7,1.7c-0.9,0-1.7-0.8-1.7-1.7c0-0.9,0.8-1.7,1.7-1.7h0.2l1.9-1.8c0.1,0,0.2,0,0.3,0c0.1,0.1,0.1,0.2,0.1,0.3
		l-1,2.4C13,12.8,13.1,13.1,13.1,13.3z M16.2,11.3c0,0-0.1,0.1-0.2,0.1h-0.5c0,0,0,0,0,0c-0.1,0-0.2-0.1-0.2-0.2
		c-0.1-2.1-1.8-3.8-3.9-3.9C9.3,7.2,7.4,9,7.3,11.2c0,0,0,0,0,0c0,0.1-0.1,0.2-0.2,0.2H6.6c-0.1,0-0.1,0-0.2-0.1
		c0-0.1-0.1-0.1,0-0.2c0.1-2.7,2.3-4.8,4.9-4.7c2.7,0,4.8,2.1,4.9,4.7C16.3,11.2,16.3,11.3,16.2,11.3z"/>
	<path class="st0" d="M11.3,12.5c-0.4,0-0.8,0.4-0.8,0.8c0,0.4,0.4,0.8,0.8,0.8c0.4,0,0.8-0.4,0.8-0.8
		C12.2,12.8,11.8,12.5,11.3,12.5z"/>
	<path class="st0" d="M11.3,0.3c-6.1,0-11,4.9-11,11s4.9,11,11,11s11-4.9,11-11S17.4,0.3,11.3,0.3z M11.3,18.3c-3.9,0-7-3.1-7-7
		c0-3.9,3.1-7,7-7c3.9,0,7,3.1,7,7C18.3,15.2,15.2,18.3,11.3,18.3z"/>
</g>
</svg>
