<svg xmlns="http://www.w3.org/2000/svg" viewBox="0 0 22 22">
  <defs>
    <style>
      .cls-1 {
        fill: #50d8bb;
      }

      .cls-2 {
        fill: #fff;
      }
    </style>
  </defs>
  <g id="一般機台icon" transform="translate(-601 -207)">
    <path id="Path_2577" data-name="Path 2577" class="cls-1" d="M11,0A11,11,0,1,1,0,11,11,11,0,0,1,11,0Z" transform="translate(601 207)"/>
    <g id="Group_280" data-name="Group 280" transform="translate(605 211)">
      <path id="Path_2568" data-name="Path 2568" class="cls-2" d="M9.523,4.6A4.9,4.9,0,0,0,4.6,9.342a.272.272,0,0,0,.045.181.235.235,0,0,0,.181.09h.452A.213.213,0,0,0,5.5,9.387a4.022,4.022,0,0,1,8.039,0,.213.213,0,0,0,.226.226h.452a.342.342,0,0,0,.181-.09c.045-.045.045-.09.045-.181A4.9,4.9,0,0,0,9.523,4.6Z" transform="translate(-2.523 -2.523)"/>
      <path id="Path_2569" data-name="Path 2569" class="cls-2" d="M15.81,12.159a.284.284,0,0,0-.271,0l-1.9,1.761h-.226a1.716,1.716,0,1,0,1.716,1.716,1.484,1.484,0,0,0-.181-.768l.994-2.439A.322.322,0,0,0,15.81,12.159ZM13.416,16.4a.813.813,0,1,1,.813-.813A.84.84,0,0,1,13.416,16.4Z" transform="translate(-6.416 -6.649)"/>
      <path id="Path_2570" data-name="Path 2570" class="cls-2" d="M7,0A7.035,7.035,0,0,0,0,7a7.035,7.035,0,0,0,7,7,7.035,7.035,0,0,0,7-7A7.035,7.035,0,0,0,7,0ZM7,13.1A6.1,6.1,0,1,1,13.1,7,6.129,6.129,0,0,1,7,13.1Z"/>
    </g>
  </g>
</svg>
