<svg xmlns="http://www.w3.org/2000/svg" viewBox="0 0 30 30">
  <defs>
    <style>
      .cls-1 {
        fill: #fff;
      }
    </style>
  </defs>
  <path id="全部裝置icon-active" class="cls-1" d="M23.538,18.462V15.692H6.462v2.769h3.923a1.09,1.09,0,0,1,1.154,1.154h0v9.231A1.09,1.09,0,0,1,10.385,30H1.154A1.09,1.09,0,0,1,0,28.846H0V19.615a1.09,1.09,0,0,1,1.154-1.154H5.077V15h0a.612.612,0,0,1,.692-.692h8.538V11.538H10.385a1.09,1.09,0,0,1-1.154-1.154h0V1.154A1.09,1.09,0,0,1,10.385,0h9.231a1.09,1.09,0,0,1,1.154,1.154h0v9.231a1.09,1.09,0,0,1-1.154,1.154H15.692v2.769h8.538a.612.612,0,0,1,.692.692h0v3.462h3.923A1.09,1.09,0,0,1,30,19.615h0v9.231A1.09,1.09,0,0,1,28.846,30H19.615a1.09,1.09,0,0,1-1.154-1.154h0V19.615a1.09,1.09,0,0,1,1.154-1.154h3.923ZM18.462,2.308H11.538V9.231h6.923V2.308ZM9.231,20.769H2.308v6.923H9.231V20.769Zm18.462,0H20.769v6.923h6.923V20.769Z"/>
</svg>
