<svg id="圖層_1" data-name="圖層 1" xmlns="http://www.w3.org/2000/svg" viewBox="0 0 27.6 32.5"><title>特殊狀態icon</title><g id="圖層_2" data-name="圖層 2"><path d="M27.1,25.3l-2.5-4.1a9.5,9.5,0,0,1-.7-2.9h0L22.6,9.6h0c-.1-.1-1-3.5-4.4-4.4L16,1.7A2.5,2.5,0,0,0,13.8.4h0a2.5,2.5,0,0,0-2.2,1.3L9.4,5.1C6,6,5.1,9.4,5,9.5H5L3.7,18.3h0A9.5,9.5,0,0,1,3,21.2L.5,25.4a2.2,2.2,0,0,0-.1,2.1,1.9,1.9,0,0,0,1.7.8H9.8a3.9,3.9,0,0,0,4.6,3.3,4,4,0,0,0,3.3-3.3h7.8a1.9,1.9,0,0,0,1.7-.8A2.4,2.4,0,0,0,27.1,25.3ZM13.7,30.1a1.9,1.9,0,0,1-1.9-1.8h3.9A2,2,0,0,1,13.7,30.1ZM2.2,26.3l2.5-4.1.3-.5h7.3a1.1,1.1,0,0,0,1-1,.9.9,0,0,0-1-1H5.5c0-.3.1-.7.1-1.1L6.9,10c.2-.4.9-2.7,3.3-3.1a1,1,0,0,0,.7-.4l2.4-3.8a.5.5,0,0,1,.5-.3.7.7,0,0,1,.6.4l2.3,3.7a1,1,0,0,0,.7.4c2.4.4,3.1,2.7,3.3,3.1L22,18.6c.3,2.6.7,3.4.9,3.6l2.4,4.1Z" style="fill:#00b5ef"/><path d="M16.3,19.7H15.2a.9.9,0,0,0-.9.9h0a1.1,1.1,0,0,0,.9,1h1.1a1.1,1.1,0,0,0,1-1A.9.9,0,0,0,16.3,19.7Z" style="fill:#00b5ef"/></g></svg>