<svg xmlns="http://www.w3.org/2000/svg" viewBox="0 0 27.647 32.512">
  <defs>
    <style>
      .cls-1 {
        fill: #fff;
        stroke: #fff;
        stroke-width: 0.6px;
      }
    </style>
  </defs>
  <g id="特殊狀態icon-active" transform="translate(-525.687 -3311.455)">
    <g id="Notification_1_" transform="translate(526 3311.755)">
      <path id="XMLID_32_" class="cls-1" d="M44.962,61.33h-1a.665.665,0,0,1,0-1.33h1a.665.665,0,1,1,0,1.33Z" transform="translate(-28.885 -40.055)"/>
      <path id="XMLID_30_" class="cls-1" d="M18.943,61.33H10.965a.665.665,0,1,1,0-1.33h7.978a.665.665,0,1,1,0,1.33Z" transform="translate(-6.855 -40.055)"/>
      <path id="XMLID_26_" class="cls-1" d="M25.355,27.923H1.62a1.623,1.623,0,0,1-1.463-.831A1.577,1.577,0,0,1,.191,25.43l2.393-3.989a6.125,6.125,0,0,0,.765-2.227L4.811,9.241V9.175A6.288,6.288,0,0,1,8.568,4.853l.4-.133c.166-.066.366-.133.565-.2a.033.033,0,0,0,.033-.033l1.729-3.224A2.319,2.319,0,0,1,13.354,0h.332a2.212,2.212,0,0,1,2.028,1.23l1.7,3.258a.116.116,0,0,0,.066.033c.066.033.1.033.166.066a2.292,2.292,0,0,1,.332.133l.366.166A6.3,6.3,0,0,1,22.1,9.208v.066l1.463,9.972a5.765,5.765,0,0,0,.765,2.194l2.393,3.989a1.652,1.652,0,0,1,.033,1.662A1.582,1.582,0,0,1,25.355,27.923ZM6.141,9.474,4.678,19.413a8.116,8.116,0,0,1-.931,2.693L1.354,26.095a.3.3,0,0,0,0,.332c0,.066.1.166.266.166H25.355a.335.335,0,0,0,.266-.166.381.381,0,0,0,0-.332h0l-2.393-3.989a6.884,6.884,0,0,1-.964-2.726L20.8,9.474a4.919,4.919,0,0,0-2.959-3.357l-.4-.166a.033.033,0,0,1-.033-.033c-.033-.033-.1-.033-.166-.066-.1-.033-.166-.066-.266-.1a1.625,1.625,0,0,1-.731-.6.033.033,0,0,0-.033-.033L14.485,1.828a.033.033,0,0,0-.033-.033.735.735,0,0,0-.765-.465h-.332a.958.958,0,0,0-.864.532L10.761,5.119a.033.033,0,0,1-.033.033,1.316,1.316,0,0,1-.731.6H9.964c-.2.066-.366.133-.532.2l-.4.133A5.113,5.113,0,0,0,6.141,9.474Z" transform="translate(0.063)"/>
      <path id="XMLID_34_" class="cls-1" d="M32.723,86.988A3.845,3.845,0,0,1,28.9,83.165a.665.665,0,1,1,1.33,0,2.493,2.493,0,0,0,4.986,0,.665.665,0,1,1,1.33,0A3.823,3.823,0,0,1,32.723,86.988Z" transform="translate(-19.272 -55.076)"/>
    </g>
  </g>
</svg>
