<svg xmlns="http://www.w3.org/2000/svg" viewBox="0 0 25.955 36">
  <defs>
    <style>
      .cls-1 {
        fill: #fff;
      }
    </style>
  </defs>
  <g id="低電量icon-active" transform="translate(-252 -3288)">
    <g id="Group_781" data-name="Group 781" transform="translate(252 3288)">
      <path id="Path_1035" data-name="Path 1035" class="cls-1" d="M5.4,36.064a.787.787,0,0,1-.432-.113,1.146,1.146,0,0,1-.647-1.24L6.263,22.537H1.083a1.124,1.124,0,0,1-.971-.564,1.062,1.062,0,0,1,0-1.127L13.061.555A1.208,1.208,0,0,1,14.356.1,1.146,1.146,0,0,1,15,1.345L13.169,13.519h5.18a1.124,1.124,0,0,1,.971.564,1.062,1.062,0,0,1,0,1.127L6.371,35.5A1.475,1.475,0,0,1,5.4,36.064ZM3.133,20.282H7.558a.968.968,0,0,1,.863.451,1.255,1.255,0,0,1,.216.9L7.342,29.977l8.957-14.2H11.874a.968.968,0,0,1-.863-.451,1.255,1.255,0,0,1-.216-.9L12.09,6.079Z" transform="translate(0.05 -0.064)"/>
    </g>
    <g id="Group_782" data-name="Group 782" transform="translate(267.587 3305.691)">
      <path id="Path_1036" data-name="Path 1036" class="cls-1" d="M17.861,36.269H17.6a.789.789,0,0,1-.391-.782l1.043-5.738H15.644c-.261,0-.522-.13-.522-.391a.582.582,0,0,1,0-.652L21.9,18.273a.627.627,0,0,1,.782-.261.789.789,0,0,1,.391.782l-.913,5.738h2.608c.261,0,.522.13.522.391a.582.582,0,0,1,0,.652L18.513,36.008A1,1,0,0,1,17.861,36.269Zm-1.043-7.824h2.217a.989.989,0,0,1,.522.261.784.784,0,0,1,.13.522l-.652,3.391,4.434-6.781H21.252a.989.989,0,0,1-.522-.261.784.784,0,0,1-.13-.522l.652-3.391Z" transform="translate(-15.025 -17.961)"/>
    </g>
  </g>
</svg>
