<svg id="圖層_1" data-name="圖層 1" xmlns="http://www.w3.org/2000/svg" viewBox="0 0 30 30"><title>全部裝置icon</title><path id="全部裝置icon" d="M23.5,18.5V15.7H6.5v2.8h3.9a1,1,0,0,1,1.1,1h0v9.2a1.1,1.1,0,0,1-1,1.2H1.2A1.1,1.1,0,0,1,0,29v-.2H0V19.6a1,1,0,0,1,1-1.1H5.1V15h0c-.1-.3.2-.6.5-.7h8.7V11.5H10.4a1.1,1.1,0,0,1-1.2-1h0V1.2A1.2,1.2,0,0,1,10.3,0h9.3a1.2,1.2,0,0,1,1.2,1v.2h0v9.2a1.1,1.1,0,0,1-1.1,1.1h-4v2.8h8.5c.4,0,.7.2.7.5V15h0v3.5h3.9a1.1,1.1,0,0,1,1.2,1h0v9.2A1.1,1.1,0,0,1,29,30H19.6a1,1,0,0,1-1.1-1v-.2h0V19.6a1,1,0,0,1,1-1.1h4Zm-5-16.2h-7V9.2h7V2.3ZM9.2,20.8H2.3v6.9H9.2Zm18.5,0H20.8v6.9h6.9V20.8Z" style="fill:#82d235"/></svg>