<svg xmlns="http://www.w3.org/2000/svg" viewBox="0 0 25 40">
  <defs>
    <style>
      .cls-1 {
        fill: #fefefe;
      }
    </style>
  </defs>
  <path id="Path_3337" data-name="Path 3337" class="cls-1" d="M-.67-2h0l22.606.238c.621,0,1.064.714,1.064,1.429h0l-.266,36.9A1.3,1.3,0,0,1,21.67,38h0L-.936,37.762c-.621,0-1.064-.714-1.064-1.429h0l.266-36.9C-1.734-1.4-1.291-2-.67-2Zm2.66,5.357h0a.8.8,0,0,1,.621-.833.794.794,0,0,1,.709.833v8.69l17.553.119L20.961.976.394.857.3,12.048H1.989V3.357Zm18.794,10.6h0L3.23,13.833,3.142,31.571c0,.476-.266.833-.621.833s-.621-.357-.621-.833l.089-17.738H.3L.128,34.9l20.479.119.177-21.071Z" transform="translate(2 2)"/>
</svg>
