<svg id="圖層_1" data-name="圖層 1" xmlns="http://www.w3.org/2000/svg" viewBox="0 0 12.5 29"><title>溫度異常icon</title><path id="溫度異常icon" d="M9.9,3.6A3.7,3.7,0,0,0,6.3,0,3.5,3.5,0,0,0,2.7,3.4V17.3A5.8,5.8,0,0,0,.2,22.1a6,6,0,0,0,5.3,6.8,6,6,0,0,0,6.8-5.3,4.3,4.3,0,0,0,0-1.6,6.1,6.1,0,0,0-2.5-4.8ZM8.7,17.8,9,18a4.8,4.8,0,0,1,2.1,4.1A4.8,4.8,0,0,1,7,27.7a4.9,4.9,0,0,1-5.7-4.1,3.3,3.3,0,0,1,0-1.4,4.9,4.9,0,0,1,2.2-4.1l.3-.2V3.6A2.4,2.4,0,0,1,6.2,1.2,2.4,2.4,0,0,1,8.6,3.6V17.8Zm-1.4.8V9.9H5.2v8.7l-.9.7a3.6,3.6,0,0,0-1.5,2.9,3.4,3.4,0,0,0,3.5,3.5,3.5,3.5,0,0,0,1.9-6.4Z" style="fill:#fc616c"/></svg>