<?xml version="1.0" encoding="utf-8"?>
<!-- Generator: Adobe Illustrator 22.1.0, SVG Export Plug-In . SVG Version: 6.00 Build 0)  -->
<svg version="1.1" id="圖層_1" xmlns="http://www.w3.org/2000/svg" xmlns:xlink="http://www.w3.org/1999/xlink" x="0px" y="0px"
	 viewBox="0 0 12.5 29" style="enable-background:new 0 0 12.5 29;" xml:space="preserve">
<style type="text/css">
	.st0{fill:#FFFFFF;}
</style>
<path id="溫度正常icon-active" class="st0" d="M10,3.7C10,1.6,8.3,0,6.3,0c-2,0-3.7,1.6-3.7,3.7v14.1c-1.6,1.1-2.6,3-2.6,5
	C0,26.2,2.8,29,6.2,29c3.4,0,6.2-2.8,6.2-6.2c0-2-0.9-3.9-2.5-5L10,3.7z M8.8,18.3l0.3,0.2c1.4,0.9,2.3,2.5,2.3,4.2
	c0,2.8-2.3,5.1-5.1,5.1s-5.1-2.3-5.1-5.1c0-1.7,0.9-3.3,2.3-4.2l0.3-0.2V3.7c0-1.4,1.1-2.5,2.5-2.5c1.4,0,2.5,1.1,2.5,2.5L8.8,18.3
	L8.8,18.3z M7.3,19.1v-9H5.2v9l-0.9,0.6c-1,0.7-1.6,1.8-1.6,3c0,2,1.6,3.6,3.6,3.6s3.6-1.6,3.6-3.6c0-1.2-0.6-2.3-1.6-3L7.3,19.1z"
	/>
</svg>
