<svg id="大頭照" xmlns="http://www.w3.org/2000/svg" viewBox="0 0 42.75 42.75">
  <defs>
    <style>
      .cls-1 {
        fill: #e8e8e8;
      }

      .cls-2 {
        fill: #bbb;
      }
    </style>
  </defs>
  <path id="Path_3487" data-name="Path 3487" class="cls-1" d="M21.375,0A21.375,21.375,0,1,1,0,21.375,21.375,21.375,0,0,1,21.375,0Z"/>
  <path id="Path_3412" data-name="Path 3412" class="cls-2" d="M42.889,42.308h0v-.445c0-.1-.051-.2-.051-.346h0a6.827,6.827,0,0,0-.658-1.631h0l-.456-.741h0a5.612,5.612,0,0,0-.506-.642h0a3.753,3.753,0,0,0-.76-.791h0a.684.684,0,0,1-.152-.2h0a10.945,10.945,0,0,0-1.468-1.186h0c-.152-.1-.253-.148-.405-.247-.1-.049-.253-.148-.354-.2h0c-.152-.1-.354-.2-.506-.3-.152-.049-.3-.148-.456-.2A11.874,11.874,0,0,0,35.7,34.9h0l-.608-.148c-.1,0-.152-.049-.253-.049h-.1a5.107,5.107,0,0,0-.861-.1h-.152a5.638,5.638,0,0,0-.911-.049h0a6.781,6.781,0,0,0-.608-1.384h0v-.049a12.439,12.439,0,0,0,1.772-4.348,1.668,1.668,0,0,0,1.468-1.631V25.558a1.7,1.7,0,0,0-.76-1.384h0a.3.3,0,0,0,.051-.346.318.318,0,0,0-.354-.049l-.2.148c-.051,0-.1-.049-.152-.049V21.456h.1l.3-.1v-.988a1.98,1.98,0,0,0-.051-.544h0c-.051-.346-.1-.692-.152-.988h0a4.507,4.507,0,0,0-.2-.642h0v-.049a5.422,5.422,0,0,0-.354-.791h0c-.051-.049-.051-.148-.1-.2h0a6.178,6.178,0,0,0-1.418-1.779c-.051-.049-.152-.1-.2-.148h0A6.919,6.919,0,0,0,27.394,13.6h-.456a3.944,3.944,0,0,0-1.063.148h-.051c-.051,0-.1,0-.1.049h-.051a4.533,4.533,0,0,0-.76.247h0c-.051.049-.152.049-.2.1h0l-.608.3h0c-.051.049-.1.049-.2.1h0a3.076,3.076,0,0,0-.506.346h0l-.152.148h0a1.355,1.355,0,0,0-.405.346h0a.7.7,0,0,1-.2.148h0a2.312,2.312,0,0,0-.354.346h0c-.051.049-.1.148-.2.2h0c-.1.148-.253.247-.354.4a1.709,1.709,0,0,0-.051.3v.593a5.679,5.679,0,0,0-.506,1.285.179.179,0,0,1-.051.148,2.448,2.448,0,0,0-.1.642.179.179,0,0,1-.051.148,3.651,3.651,0,0,0-.051.741v3.508a.189.189,0,0,0-.152.049l-.2-.148a.254.254,0,0,0-.354.049c-.152.247-.152.4-.051.494h0a1.633,1.633,0,0,0-.76,1.384v1.581a1.668,1.668,0,0,0,1.468,1.631,12.439,12.439,0,0,0,1.772,4.348c-.1.148-.152.3-.253.445h0c0,.049-.051.1-.051.148h0c-.1.247-.2.494-.3.791h0a5.638,5.638,0,0,0-.911.049h-.152c-.3.049-.557.049-.861.1H20c-.1,0-.152.049-.253.049l-.608.148h0a11.875,11.875,0,0,0-1.418.494c-.152.049-.3.148-.456.2a1.112,1.112,0,0,0-.253.148h0a3.8,3.8,0,0,0-.608.346c-.152.1-.253.148-.405.247-2.43,1.631-3.9,4-4.1,5.534v.494l.354.346a15.5,15.5,0,0,0,1.367,1.186h0l.911.741h0c.557.4,1.165.791,1.772,1.136h0c.253.148.506.3.709.4h0a.178.178,0,0,1,.1.049h0a21.6,21.6,0,0,0,8.76,2.471h.152a12.644,12.644,0,0,0,1.367.049,12.644,12.644,0,0,0,1.367-.049h.152a21.829,21.829,0,0,0,8.76-2.471h0c.1-.049.253-.148.354-.2h0c.1-.049.152-.1.253-.148a20.536,20.536,0,0,0,2.177-1.433h0a25.264,25.264,0,0,0,2.481-2.125c-.051.049-.051,0-.051-.049Z" transform="translate(-6.02 -6.13)"/>
</svg>
