<svg id="admin" xmlns="http://www.w3.org/2000/svg" width="15.333" height="15.333" viewBox="0 0 15.333 15.333">
  <path id="Path_448" data-name="Path 448" d="M0,0H15.334V15.334H0Z" fill="none"/>
  <path id="Path_449" data-name="Path 449" d="M12.711,2.239H10.174a1.8,1.8,0,0,0-3.423,0H4.214A1.23,1.23,0,0,0,3,3.479v8.676a1.23,1.23,0,0,0,1.214,1.239h8.5a1.23,1.23,0,0,0,1.214-1.239V3.479A1.23,1.23,0,0,0,12.711,2.239Zm-4.249,0a.62.62,0,1,1-.607.62A.615.615,0,0,1,8.463,2.239Zm0,2.479A1.86,1.86,0,1,1,6.642,6.578,1.838,1.838,0,0,1,8.463,4.718ZM12.1,12.155H4.821v-.868c0-1.239,2.428-1.921,3.642-1.921s3.642.682,3.642,1.921Z" transform="translate(-0.796 -0.265)" fill="#004ea2"/>
</svg>
